<svg data-name="Layer 1" xmlns="http://www.w3.org/2000/svg" width="100%" height="100%" viewBox="0 -30 870 710"><defs><clipPath id="a"><path data-name="SVGID" d="M321.56 47.34c-107.27 14-75.44 100.42-56.75 134a139.65 139.65 0 0 0 14.78 21.28c56.55 67.91-31.44 92.6-57.29 98.2-10.45 2.27-20.82 4.87-31 8.05-72.79 22.68-95.43 53.93-95.43 53.93-100.93 117.4 13.21 200.11 13.21 200.11s90.7 109.67 406.07 105.22c0 0 254.31-6.66 304.28-238.75 0 0 25.54-135.48-44.42-223.21-.01 0-139.56-199.94-453.45-158.83z" fill="none"/></clipPath></defs><path d="M321.56 47.34c-107.27 14-75.44 100.42-56.75 134a139.65 139.65 0 0 0 14.78 21.28c56.55 67.91-31.44 92.6-57.29 98.2-10.45 2.27-20.82 4.87-31 8.05-72.79 22.68-95.43 53.93-95.43 53.93-100.93 117.4 13.21 200.11 13.21 200.11s90.7 109.67 406.07 105.22c0 0 254.31-6.66 304.28-238.75 0 0 25.54-135.48-44.42-223.21-.01 0-139.56-199.94-453.45-158.83z" fill="#0071f2"/><path d="M321.56 47.34c-107.27 14-75.44 100.42-56.75 134a139.65 139.65 0 0 0 14.78 21.28c56.55 67.91-31.44 92.6-57.29 98.2-10.45 2.27-20.82 4.87-31 8.05-72.79 22.68-95.43 53.93-95.43 53.93-100.93 117.4 13.21 200.11 13.21 200.11s90.7 109.67 406.07 105.22c0 0 254.31-6.66 304.28-238.75 0 0 25.54-135.48-44.42-223.21-.01 0-139.56-199.94-453.45-158.83z" fill="#fff" opacity=".7"/><g clip-path="url(#a)"><path fill="#0071f2" d="M784.37 546.37H82.91l39.41 103.11 674.92 116.9-12.87-220.01z"/><path fill="#fff" opacity=".5" d="M784.37 546.37H82.91l39.41 103.11 674.92 116.9-12.87-220.01z"/><path d="M414.81 473.81 409.18 530a5.7 5.7 0 0 1-6.2 5.15h-.05l-89.15-8.92a5.75 5.75 0 0 1-5.15-6.27l5.63-56.21a5.32 5.32 0 0 1 5.83-4.76L410 468a5.3 5.3 0 0 1 4.79 5.77z" fill="#2f2e41"/><path d="M414.81 473.81 409.18 530a5.7 5.7 0 0 1-6.2 5.15h-.05l-89.15-8.92a5.75 5.75 0 0 1-5.15-6.27l5.63-56.21a5.32 5.32 0 0 1 5.83-4.76L410 468a5.3 5.3 0 0 1 4.79 5.77z" opacity=".2"/><path fill="#fff" d="m311.912 487.529 1.283-12.505 100.512 10.316-1.283 12.505zM317.378 499.556l.72-7.013 87.252 8.955-.72 7.013z"/><path d="m395.66 502.58-.56.25h-.1a.1.1 0 0 1-.1-.07.12.12 0 0 1 0-.16l.77-.37a.12.12 0 0 1 .18.16l-.34 3.49a.14.14 0 0 1-.14.12.14.14 0 0 1-.12-.16zM396.54 505.87l1.94-1.43a1 1 0 0 0 .4-.69 1.12 1.12 0 0 0-.19-.67 1 1 0 0 0-.7-.4 1 1 0 0 0-.68.19l-.21.14a.13.13 0 1 1-.15-.2l.19-.16a1.32 1.32 0 0 1 .88-.23 1.21 1.21 0 0 1 .87.49 1.29 1.29 0 0 1-.26 1.75L397 506l1.81.18a.12.12 0 0 1 .11.14.12.12 0 0 1-.14.11l-2.12-.24h-.11a.16.16 0 0 1 0-.21.13.13 0 0 1-.01-.11zM402.42 503.09l-1.08.91a1.3 1.3 0 0 1-.51 2.53 1.3 1.3 0 0 1-.87-.48.11.11 0 0 1 0-.16.11.11 0 0 1 .16 0 1.06 1.06 0 0 0 .69.36 1 1 0 0 0 1.12-.9 1 1 0 0 0-.91-1.12.15.15 0 0 1-.11-.06.15.15 0 0 1 0-.19l1.05-.87-1.46-.16c-.06 0-.11-.05-.12-.11a.12.12 0 0 1 .12-.13l1.77.18a.13.13 0 0 1 .12.14z" fill="#2f2e41"/><path fill="#0071f2" d="m316.503 508.21.141-1.373 68.053 6.985-.141 1.372zM316.23 510.85l.14-1.372 70.997 7.287-.14 1.373z"/><path d="m369.74 439.71 9.14 55.75a5.7 5.7 0 0 1-4.68 6.54l-88.42 14.52a5.72 5.72 0 0 1-6.56-4.73l-9.15-55.75a5.33 5.33 0 0 1 4.39-6.11l89.18-14.57a5.31 5.31 0 0 1 6.1 4.35z" fill="#2f2e41"/><path d="M363.23 490a5.27 5.27 0 1 1-6.05-4.33 5.27 5.27 0 0 1 6.05 4.33z" fill="#fff"/><path d="M369.62 488.91a5.26 5.26 0 1 1-6.05-4.33 5.26 5.26 0 0 1 6.05 4.33zM293.5 469.93l-5.77 1a6.56 6.56 0 0 1-7.54-5.41 6.54 6.54 0 0 1 5.4-7.52l5.78-1a6.58 6.58 0 0 1 7.53 5.41 6.54 6.54 0 0 1-5.4 7.52z" fill="#0071f2"/><path d="m360.09 453-8.47 1.39a3.6 3.6 0 0 1-4.13-3 3.59 3.59 0 0 1 2.95-4.13l8.47-1.39a3.57 3.57 0 0 1 4.12 2.95 3.59 3.59 0 0 1-3 4.12zM282.5 483.86l-.69.56h-.09a.19.19 0 0 1-.18 0 .18.18 0 0 1 0-.27l.95-.81a.19.19 0 0 1 .26 0 .29.29 0 0 1 0 .13l.82 5a.18.18 0 0 1-.15.21.18.18 0 0 1-.22-.14zM285 488.13l2.16-2.7a1.47 1.47 0 0 0 .3-1.12 1.32 1.32 0 0 0-.52-.87 1.38 1.38 0 0 0-1.11-.29 1.47 1.47 0 0 0-.88.51l-.22.29a.2.2 0 0 1-.31-.24l.22-.28a1.81 1.81 0 0 1 3.19.82 1.83 1.83 0 0 1-.36 1.41l-1.9 2.34 2.57-.43a.21.21 0 0 1 .22.17.2.2 0 0 1-.16.22l-3 .49a.19.19 0 0 1-.15 0 .22.22 0 0 1-.09-.3zM292 482.08l-1.17 1.66a2 2 0 0 1 1 .35 1.86 1.86 0 0 1 .75 1.28 1.91 1.91 0 0 1-1.54 2.15 1.85 1.85 0 0 1-1.39-.33.18.18 0 0 1 0-.26.18.18 0 0 1 .27 0 1.46 1.46 0 0 0 1.09.26 1.49 1.49 0 0 0 1-.6 1.52 1.52 0 0 0-1.41-2.38.15.15 0 0 1-.16 0 .18.18 0 0 1 0-.27l1.12-1.61-2.08.34a.2.2 0 0 1-.23-.15.19.19 0 0 1 .15-.22l2.57-.41a.2.2 0 0 1 .23.16.14.14 0 0 1 0 .09.16.16 0 0 1-.2-.06zM297.24 485.3l-2.94.49h-.11a.19.19 0 0 1-.09-.24l2.51-4.43a.17.17 0 0 1 .24-.08.18.18 0 0 1 .08.09l.61 3.71h.37a.19.19 0 0 1 .22.14.18.18 0 0 1-.15.2h-.38l.16.94a.2.2 0 0 1-.16.21.2.2 0 0 1-.22-.16zm0-.38-.58-3.23-2.05 3.61zM304.14 484.76a.2.2 0 0 1 0-.27.21.21 0 0 1 .29 0 1.46 1.46 0 0 0 1.09.24 1.4 1.4 0 0 0 1-.59 1.45 1.45 0 0 0-1.43-2.3 1.45 1.45 0 0 0-1 .59.2.2 0 0 1-.27 0h-.06a.09.09 0 0 1 0-.07l-.1-2.22a.17.17 0 0 1 .06-.16h.12l2.57-.41a.19.19 0 0 1 .23.15.2.2 0 0 1-.17.23l-2.36.38.07 1.65a1.78 1.78 0 0 1 .88-.4 1.85 1.85 0 0 1 1.39.32 1.81 1.81 0 0 1 .74 1.21 1.87 1.87 0 0 1-1.55 2.14 1.9 1.9 0 0 1-1.37-.32zM308.7 480.2a2.2 2.2 0 0 1 1.71-1.48.19.19 0 0 1 .22.14.21.21 0 0 1-.16.24 1.84 1.84 0 0 0-1.41 1.28 3.78 3.78 0 0 0-.22 1.15 1.83 1.83 0 1 1-.24 1.28c0-.11-.05-.23-.07-.34a4.49 4.49 0 0 1 .17-2.27zm.27 2.58v.1a1.45 1.45 0 1 0 0-.18zM314.41 483.35l1.22-5.14-2.57.42a.19.19 0 0 1-.22-.15.21.21 0 0 1 .16-.22l2.87-.48h.13a.27.27 0 0 1 .12.09.21.21 0 0 1 0 .11l-1.29 5.34a.17.17 0 0 1-.15.14.11.11 0 0 1-.08 0 .21.21 0 0 1-.19-.11zM318.93 477.31a1.14 1.14 0 0 1 1 1.93 1.75 1.75 0 1 1-2.16 1.89 1.8 1.8 0 0 1 .82-1.73 1.11 1.11 0 0 1 .38-2.09zm.82 5.05a1.4 1.4 0 0 0-.34-2.78h-.11a1.4 1.4 0 0 0 .34 2.78zm-.51-3.16a.78.78 0 1 0-.89-.65.77.77 0 0 0 .89.65zM328.56 475.72a1.82 1.82 0 0 1 2.05 1.29 2.34 2.34 0 0 0 .09.46 4.68 4.68 0 0 1-.17 2.26 2.25 2.25 0 0 1-1.7 1.49.17.17 0 0 1-.21-.11.18.18 0 0 1 .12-.23 1.92 1.92 0 0 0 1.42-1.29 3.48 3.48 0 0 0 .2-1.15 1.76 1.76 0 0 1-1.29.81 1.81 1.81 0 0 1-.59-3.57zm1.73 1.56a1.43 1.43 0 1 0-1.2 1.65 1.45 1.45 0 0 0 1.2-1.65zM332.19 477.92a3.54 3.54 0 0 1 .21-2 1.55 1.55 0 0 1 2.71-.45 3.52 3.52 0 0 1 .84 1.82 3.46 3.46 0 0 1-.22 2 1.67 1.67 0 0 1-1.22 1 1.71 1.71 0 0 1-1.49-.6 3.43 3.43 0 0 1-.83-1.77zm.39 0a2.94 2.94 0 0 0 .73 1.61 1.16 1.16 0 0 0 2.07-.34 3.26 3.26 0 0 0-.55-3.36 1.26 1.26 0 0 0-1.14-.49 1.31 1.31 0 0 0-.93.82 3 3 0 0 0-.18 1.67zM338.09 474.73l-.7.57h-.09a.19.19 0 0 1-.18 0 .2.2 0 0 1 0-.27l.95-.81a.19.19 0 0 1 .26 0 .15.15 0 0 1 0 .13l.82 5a.17.17 0 0 1-.15.2.2.2 0 0 1-.21-.16zM340.56 479l2.16-2.7a1.4 1.4 0 0 0 .29-1.12 1.25 1.25 0 0 0-.51-.86 1.43 1.43 0 0 0-1.11-.3 1.46 1.46 0 0 0-.89.52l-.23.28a.18.18 0 0 1-.25 0 .18.18 0 0 1 0-.27l.21-.28a1.85 1.85 0 0 1 1.14-.66 1.82 1.82 0 0 1 1.4.36 1.75 1.75 0 0 1 .65 1.12 1.8 1.8 0 0 1-.36 1.4l-1.85 2.33 2.58-.42a.18.18 0 0 1 .21.16.18.18 0 0 1-.15.21l-3 .5a.15.15 0 0 1-.16 0 .21.21 0 0 1-.13-.27zM352.24 472.19l-1.17 1.67a1.87 1.87 0 0 1 .25 3.7 1.83 1.83 0 0 1-1.38-.32.19.19 0 0 1 .22-.32 1.48 1.48 0 0 0 2.07-.31v-.06a1.48 1.48 0 0 0-.34-2.06 1.42 1.42 0 0 0-1.09-.26.17.17 0 0 1-.17 0 .19.19 0 0 1 0-.27l1.12-1.61-2.1.35a.19.19 0 0 1-.21-.17.16.16 0 0 1 .13-.21l2.57-.42a.19.19 0 0 1 .23.15v.09a.12.12 0 0 1-.13.08zM357.5 475.42l-2.95.47a.11.11 0 0 1-.11 0 .17.17 0 0 1-.07-.24l2.5-4.42a.18.18 0 0 1 .25 0l.07.08.61 3.71h.37a.21.21 0 0 1 .22.16.18.18 0 0 1-.13.21h-.4l.16.92a.19.19 0 0 1-.17.22.17.17 0 0 1-.2-.15zm0-.38-.53-3.18-2.16 3.59zM359.74 475.63a.2.2 0 0 1 0-.27.21.21 0 0 1 .28 0 1.48 1.48 0 0 0 2.05-.34 1.48 1.48 0 0 0 .26-1.1 1.52 1.52 0 0 0-.6-1 1.45 1.45 0 0 0-1.09-.25 1.54 1.54 0 0 0-1 .6.2.2 0 0 1-.27 0l-.1-2.23a.15.15 0 0 1 .07-.15.11.11 0 0 1 .11 0l2.58-.42a.21.21 0 0 1 .23.15.23.23 0 0 1-.17.23l-2.37.39.08 1.64a1.78 1.78 0 0 1 .87-.4 1.82 1.82 0 0 1 1.39.33 1.77 1.77 0 0 1 .75 1.2 1.86 1.86 0 0 1-1.52 2.14 1.85 1.85 0 0 1-1.55-.52zM364.31 471.08a2.2 2.2 0 0 1 1.69-1.48.18.18 0 0 1 .21.13.2.2 0 0 1-.16.23 1.84 1.84 0 0 0-1.41 1.29 3.21 3.21 0 0 0-.22 1.14 1.81 1.81 0 1 1 .58 2.5 1.86 1.86 0 0 1-.83-1.21l-.07-.35a4.58 4.58 0 0 1 .21-2.25zm.27 2.57v.11a1.46 1.46 0 1 0 0-.18zM285.515 497.9l47.347-7.77.38 2.32-47.346 7.77zM286.374 503.073l33.522-5.501.38 2.319-33.521 5.501zM320.19 454.334l23.691-3.829.376 2.327-23.69 3.829z" fill="#fff"/><path d="M706 325.8s-8.73 192.81-17 225.9l-228.77-5.19c-10.57-27-2.36-96.85-2.36-96.85-11.86 13.77-28.72 14.87-34.74 14.79a11.9 11.9 0 0 1-4-.72c-67.29-25-88.07-152-88.07-152a31.93 31.93 0 0 0 25.56-4.23 17.58 17.58 0 0 0 1.44-1.05c42.26-18.2 50.47-10.57 50.47-10.57C406.8 354 419.13 371 419.13 371c1.68 5.46 3.6 8.87 5.55 10.88 6.93 7.08 14.4-3.25 14.4-3.25 14.08-21.7 42.85-50.47 42.85-50.47 10-9.39 43-20.93 43-20.93l116.35-6.35s57.53 13.34 64.72 24.92z" fill="#0071f2"/><path d="M672 588.46s-8.82 10.29-15.07-10.29c0 0-10.66-34.19-21-40.07.07 0 30.9-1.1 36.07 50.36z" fill="#0071f2"/><path d="M672 588.46s-8.82 10.29-15.07-10.29c0 0-10.66-34.19-21-40.07.07 0 30.9-1.1 36.07 50.36z" opacity=".2"/><path d="M554.62 403.55 549.93 373s5.68.16 11.39-17.92c0 0 4.74-12.28 6-20.13l1.06-3.84 8.94 7.8 1.33 8.37z" fill="#fff"/><path d="M559.49 278.2s-7.72 18.38-11.76 23.16c0 0 7 14.34 5.51 20.59 0 0 37.5-29.05 58.08-33.46 0 0-9.92-3.3-10.66-16.17z" fill="#f9b499"/><path d="m559.49 278.2-6.25 13.42s34.46 2.48 47.42-19.3z" fill="#f7a48b"/><ellipse cx="575.8" cy="220.7" rx="45.01" ry="62.15" fill="#f9b499"/><path d="M625.47 140c20.33 12.16 12.19 40 12.19 40 43.57 34.27-21.49 68-21.49 68 2.91-5.81 3.49-14.53 3.49-14.53l-5.23-9.29c-5.23-42.4-27.3-34.27-27.3-34.27-33.11 8.71-49.37-1.16-49.37-1.16s-17.47-4.79-18.21-25.16c-.92-25 23.85-43.47 47.64-35.7 7.41 2.42 15.79 6.91 25.17 14.39 0 0 16.26-12.77 33.11-2.28z" fill="#2f2e41"/><path d="M534.13 338.49s.24-23 13.6-37.13c0 0 6.82 11.75 5.51 20.59 0 0 29.78-24.63 58.08-33.46l9.56 1.84s-25.73 22.06-44.11 57.72c0 0-5.07-12.58-23.8-25 .03 0-12.59 4.41-18.84 15.44z" fill="#e6e7e8"/><path d="M620.88 290.33s19.19 2.47 20.41 10.57c0 0-10.94 15-7.7 31.19 0 0-21.06-13-18.22-2.43a147.54 147.54 0 0 0 10.93 18.22s4.56 2.74-3.41 7a127.83 127.83 0 0 0-35.4 27.41c-17.37 19.5-38.58 48.8-39.77 76.57a477.41 477.41 0 0 1 6.9-55.32s15.38-67.07 66.26-113.21z" fill="#0071f2"/><path d="M620.88 290.33s19.19 2.47 20.41 10.57c0 0-10.94 15-7.7 31.19 0 0-21.06-13-18.22-2.43a147.54 147.54 0 0 0 10.93 18.22s4.56 2.74-3.41 7a127.83 127.83 0 0 0-35.4 27.41c-17.37 19.5-38.58 48.8-39.77 76.57a477.41 477.41 0 0 1 6.9-55.32s15.38-67.07 66.26-113.21z" fill="#fff" opacity=".4"/><path d="M511.5 337.51c3.56-3 13.44-12.8 13.44-30.27l22.79-5.88s-12.5 11.76-13.6 37.13c0 0-1.11 82.34-3.31 99.62 0 0-13.2-71.89-26.43-91.45a1.22 1.22 0 0 1 .78-1.9c6.77-1.23 27.88-5.44 6.7-6.22a.58.58 0 0 1-.37-1.03z" fill="#0071f2"/><path d="M511.5 337.51c3.56-3 13.44-12.8 13.44-30.27l22.79-5.88s-12.5 11.76-13.6 37.13c0 0-1.11 82.34-3.31 99.62 0 0-13.2-71.89-26.43-91.45a1.22 1.22 0 0 1 .78-1.9c6.77-1.23 27.88-5.44 6.7-6.22a.58.58 0 0 1-.37-1.03z" fill="#fff" opacity=".4"/><path d="M658.74 522.66s39.71 14.7 47.79 37.49c0 0 83.82-60.28 67.64-107.34 0 0-24.63-70.94-68.19-127l-6.8 110.09s26.47 16.18-.73 48.53z" fill="#0071f2"/><path d="m636 538.1 22.79-15.44s41.54 14.7 47.79 37.49c0 0-29.4 43-34.55 28.31-.03 0-1.89-47.05-36.03-50.36z" fill="#0071f2"/><path d="m636 538.1 22.79-15.44s41.54 14.7 47.79 37.49c0 0-29.4 43-34.55 28.31-.03 0-1.89-47.05-36.03-50.36z" fill="#fff" opacity=".4"/><path d="M680.8 576.33s-8.45-21.69-25.36-29.41c0 0 14.33 11.76 16.54 41.54 0 0 2 9.47 15.44-4.78 0 0 7.72-6.62 19.11-23.53l-1.1-3.67z" fill="#fff" opacity=".4"/><path d="M710.94 454.28s36.4-4.78 49.26 11c0 0-26.46-14-50.36.37 0 .03 1.47-7.65 1.1-11.37zM645.88 530.75s41.17-29.05 35.29-57c0 0-7.72-78.3 9.19-68l9.56 18-1.47 23.16-7.72-11-4.05 51.84 9.93-13.24-1.84 13.6s-40.77 40.8-48.89 42.64z" opacity=".2"/><path d="M645.51 540.3s-12.13 8.09-21 3.31c0 0-4.41-4-12.87-4l-7.72 57s27.57 10.29 44.48-9.56l20.26-16.88s-2.73-20.77-23.15-29.87z" fill="#f9b499"/><path d="M633.59 332.09s12.29-37.35 40.23-13.45l31.24 22.42.92-15.25s-.18-6.81-40.25-18.57l-24.44-6.34a42.43 42.43 0 0 0-7.7 31.19zM467.5 342.9s-14.87 68.56-10.09 94.54c0 0 24.7-102.81 33.52-115.22 0 0-3.58 0-15.16 12.41z" opacity=".2"/><path d="M337.06 339.75s38 1 71.06-20l.44-23.84s-11.94-7.71-50.48 10.57a30 30 0 0 1-27 5.28z" fill="#0071f2"/><path d="M337.06 339.75s38 1 71.06-20l.44-23.84s-11.94-7.71-50.48 10.57a30 30 0 0 1-27 5.28z" fill="#fff" opacity=".4"/><path d="M331.06 252.17s-12-5-3.51-7c0 0 6.31-2.71 35.19 14.13a32 32 0 0 0 13.36 4.3c3.8.32 8 .18 10.5-1.42 0 0 19.52-8.5 19.52 10.51 0 0 .5 14.51-2.5 21.52 0 0-23-.5-38 9-.04.01.97-30.02-34.56-51.04z" fill="#f9b499"/><ellipse cx="624.21" cy="224.13" rx="14.45" ry="8.94" transform="rotate(-62.41 624.202 224.136)" fill="#f9b499"/><path d="M567.3 334.9s-8.3 35.85-17.37 38.1l4.69 30.6s-9.48 41.49-6.52 93.74l-20.59-1.1s7.72-137.85 6.62-157.7c0 0 6.8-11.4 18.84-15.44.03-.05 12.59 8.59 14.33 11.8z" fill="#2f2e41"/><path d="M533.94 366.06a23.14 23.14 0 0 1 7.75 0 11.7 11.7 0 0 0 11-3.43c4.1-4.42 9.12-13 13.4-29.69l1.19 1.93s-7.44 34.47-17.37 38.05c0 0-12.86-4.5-13.23 1.38l-.92 122.23-8.27-.37s6.64-121.83 6.45-130.1z" opacity=".2"/><path d="m424.68 381.89-.05.39s-16-11-22.51-44c0 0-6-37-45.55-30.52a2 2 0 0 0 .07-.21 17.58 17.58 0 0 0 1.44-1.05c42.26-18.2 50.47-10.57 50.47-10.57C406.8 354 419.13 371 419.13 371c1.68 5.47 3.6 8.88 5.55 10.89z" fill="#fff" opacity=".4"/><path d="M311.79 161.71c.26-1.35.43-2.58.56-3.85s.19-2.58.19-3.87a21 21 0 0 0-.36-4 9.5 9.5 0 0 0-1.79-4.25 5.54 5.54 0 0 0-2.2-1.66 5.42 5.42 0 0 0-1.31-.36 6 6 0 0 0-1.27-.05 7.61 7.61 0 0 0-4.31 1.72 11.88 11.88 0 0 0-2.74 3.13 10.93 10.93 0 0 0-1.5 3.89 4.72 4.72 0 0 0 .19 2.47 2.78 2.78 0 0 0 1 1.26 2.93 2.93 0 0 0 1.44.47 2.67 2.67 0 0 0 1.51-.36 3.16 3.16 0 0 0 1-1 5.54 5.54 0 0 0 .77-2.05 11.34 11.34 0 0 0 0-3.94 9.45 9.45 0 0 0-1.39-3.65 4.43 4.43 0 0 0-1.51-1.41 3.23 3.23 0 0 0-2.07-.35 6.24 6.24 0 0 0-3.27 1.93 20.61 20.61 0 0 0-3.88 6.18 20.38 20.38 0 0 1 4.3-5.75 5.43 5.43 0 0 1 3-1.47 2.6 2.6 0 0 1 2.42 1.53 7.9 7.9 0 0 1 .86 3.2 9.68 9.68 0 0 1-.28 3.3 3.54 3.54 0 0 1-.6 1.27.79.79 0 0 1-.33.27.49.49 0 0 1-.24 0 .58.58 0 0 1-.25-.12 1.34 1.34 0 0 1-.07-.18 2.36 2.36 0 0 1 .09-1.12 9 9 0 0 1 3.61-4.84 4.1 4.1 0 0 1 2.42-.75 3.07 3.07 0 0 1 .53.07 2.17 2.17 0 0 1 .42.17 1.88 1.88 0 0 1 .6.59 5.92 5.92 0 0 1 .72 2.49 17.32 17.32 0 0 1 0 3.22 31.34 31.34 0 0 1-.45 3.35 37.84 37.84 0 0 1-.76 3.29z" fill="#0071f2"/><path d="M311.79 161.71c.26-1.35.43-2.58.56-3.85s.19-2.58.19-3.87a21 21 0 0 0-.36-4 9.5 9.5 0 0 0-1.79-4.25 5.54 5.54 0 0 0-2.2-1.66 5.42 5.42 0 0 0-1.31-.36 6 6 0 0 0-1.27-.05 7.61 7.61 0 0 0-4.31 1.72 11.88 11.88 0 0 0-2.74 3.13 10.93 10.93 0 0 0-1.5 3.89 4.72 4.72 0 0 0 .19 2.47 2.78 2.78 0 0 0 1 1.26 2.93 2.93 0 0 0 1.44.47 2.67 2.67 0 0 0 1.51-.36 3.16 3.16 0 0 0 1-1 5.54 5.54 0 0 0 .77-2.05 11.34 11.34 0 0 0 0-3.94 9.45 9.45 0 0 0-1.39-3.65 4.43 4.43 0 0 0-1.51-1.41 3.23 3.23 0 0 0-2.07-.35 6.24 6.24 0 0 0-3.27 1.93 20.61 20.61 0 0 0-3.88 6.18 20.38 20.38 0 0 1 4.3-5.75 5.43 5.43 0 0 1 3-1.47 2.6 2.6 0 0 1 2.42 1.53 7.9 7.9 0 0 1 .86 3.2 9.68 9.68 0 0 1-.28 3.3 3.54 3.54 0 0 1-.6 1.27.79.79 0 0 1-.33.27.49.49 0 0 1-.24 0 .58.58 0 0 1-.25-.12 1.34 1.34 0 0 1-.07-.18 2.36 2.36 0 0 1 .09-1.12 9 9 0 0 1 3.61-4.84 4.1 4.1 0 0 1 2.42-.75 3.07 3.07 0 0 1 .53.07 2.17 2.17 0 0 1 .42.17 1.88 1.88 0 0 1 .6.59 5.92 5.92 0 0 1 .72 2.49 17.32 17.32 0 0 1 0 3.22 31.34 31.34 0 0 1-.45 3.35 37.84 37.84 0 0 1-.76 3.29z" opacity=".3" style="isolation:isolate"/><path d="M317 219.79c3.51 5 2.79 20.1 4.92 22.21s23.89 1.9 25.35.65.78-6.59 2.42-7.48c.62-.35-32.69-15.38-32.69-15.38z" fill="#0071f2"/><path d="M349.66 235.18a2.37 2.37 0 0 0-.93 1.61 103.1 103.1 0 0 1-29.15-7.79c-.51-3.69-1.23-7.2-2.58-9.16 0-.05 33.31 14.98 32.66 15.34z" opacity=".1" style="isolation:isolate"/><path d="M421.3 220c-4.39 6.33-2 19.86-4.14 22s-23.89 1.9-25.36.65-.79-6.89-1.66-8c-.45-.52 31.16-14.65 31.16-14.65z" fill="#0071f2"/><path d="M421.3 220c-1.64 2.36-2.34 5.73-2.67 9.12a98.79 98.79 0 0 1-28 7.75 4.73 4.73 0 0 0-.48-2.19c-.46-.55 31.15-14.68 31.15-14.68z" opacity=".1" style="isolation:isolate"/><path d="M367.9 129.32c-48.89 0-67.6 34.28-67.6 54.34 0 19.8 14.21 53.39 67.6 53.39s71.1-28.5 71.1-53.88-21.71-53.85-71.1-53.85z" fill="#0071f2"/><path d="M385.86 131.8s20-15.34 41.66-13.51c7.45.63-4.93 16.79-5.17 29.41z" fill="#0071f2"/><path d="M414 141.53c-.13.8 6.78 3.75 7.49 3.29s1.43-10.39 7.07-21c.83-1.54-13.21 9.18-14.56 17.71z" opacity=".1" style="isolation:isolate"/><path d="M418.35 180.92a3.56 3.56 0 0 0 2.87-2.51 5.32 5.32 0 0 1-2.32 4 .11.11 0 0 0 .07.21c3.83-1.44 3.45-6.89 2.07-10.28a4.84 4.84 0 0 0-.23-.57c-.86-2-2.35-3.45-4.23-3.18-6.18.86-3.95 13.15 1.77 12.33z" opacity=".3" style="isolation:isolate"/><path d="M433.08 163.41c1 2.88 9.65.54 11.83 2.37 3.45 2.85 2.5 38.32-.65 41.18-1.78 1.6-11.62-.09-14.38 1.87s3.2-45.42 3.2-45.42z" fill="#0071f2"/><path d="M445.41 185.51c0 8.61-.72 15.64-1.62 15.64s-1.61-7-1.61-15.64.73-15.65 1.61-15.65 1.62 7 1.62 15.65z" opacity=".1" style="isolation:isolate"/><path d="M343.87 140.69c.14 0 14.9-4.85 28.64-1.09l1.37-5c-15.29-4.18-31 1-31.66 1.17l1.65 4.93-.82-2.46z" opacity=".3" style="isolation:isolate"/><path d="M323.37 216c-19.72-22.67-7.66-49-7.11-50.11a3.25 3.25 0 1 0-5.83-2.86 55.13 55.13 0 0 0-4.65 18.89c-.94 14.42 3.83 27.66 15.11 36.67 3.4 2.73 5.01.33 2.48-2.59zM314.78 155.84a3.53 3.53 0 1 0 3.54-3.52 3.52 3.52 0 0 0-3.53 3.51z" fill="#fff"/><path d="m308.48 552 .27-.9a33.82 33.82 0 0 0-4.28-4 17.14 17.14 0 0 0-7.12 1.17 8.46 8.46 0 0 0-.11 3.17c.08.4 5.28 1.28 6.16 1.33a48.63 48.63 0 0 0 5.08-.77z" fill="#0071f2"/><path d="m308.71 551.07-.26.9s2.21 1.58 2.29 1.76a1.3 1.3 0 0 1 0 .57H313v-3.17a4.51 4.51 0 0 1-1 .44 32.13 32.13 0 0 1-3.29-.5z" fill="#ffc727"/><g opacity=".1"><path d="m308.48 552 .27-.9a33.82 33.82 0 0 0-4.28-4 17.14 17.14 0 0 0-7.12 1.17 8.46 8.46 0 0 0-.11 3.17c.08.4 5.28 1.28 6.16 1.33a48.63 48.63 0 0 0 5.08-.77z"/><path d="m308.71 551.07-.26.9s2.21 1.58 2.29 1.76a1.3 1.3 0 0 1 0 .57H313v-3.17a4.51 4.51 0 0 1-1 .44 32.13 32.13 0 0 1-3.29-.5z"/></g><path d="M349.77 586.22c.23 8.64 3.67 19.26 11.33 19.26.75 0 11.08.19 11.69 0 6.19-2 9.84-13.31 9.15-23.24-.54-7.74-3-16.4-9.5-17.41h-11.69c-7.75-.07-11.25 12.06-10.98 21.39z" fill="#2f2e41"/><path d="M349.77 586.22c.23 8.64 3.67 19.26 11.33 19.26.75 0 11.08.19 11.69 0 6.19-2 9.84-13.31 9.15-23.24-.54-7.74-3-16.4-9.5-17.41h-11.69c-7.75-.07-11.25 12.06-10.98 21.39z" opacity=".2"/><path d="M362.07 586.22c.24 8.64 3.67 19.26 11.33 19.26s11.18-12.27 10.41-23.27c-.57-8.26-3.25-17.42-10.72-17.42-7.74-.03-11.28 12.1-11.02 21.43z" fill="#2f2e41"/><path d="M365.25 586c.21 6.67 2.77 14.84 8.44 14.84s8.22-9.5 7.63-17.93c-.44-6.33-2.44-13.42-7.92-13.42s-8.4 9.3-8.15 16.51z" fill="#fff"/><path d="M375.16 570.89c-.11 2.71-.52 11.34-1.11 11.34s-1.94-8.16-2.45-11.09a4.31 4.31 0 0 1 2-.49 5.15 5.15 0 0 1 1.56.24zM373 582.73c-.31.24-3.08-3.66-5.1-6.57a12.23 12.23 0 0 1 1.81-3.4c1.29 3.37 3.68 9.7 3.29 9.97zM372.47 583.75c-.14.34-3.17-1-5.81-2.33a24.27 24.27 0 0 1 .6-3.17c2.46 2.22 5.38 5.05 5.21 5.5zM372.18 585c0 .41-3 1-5.73 1.42V583.27c2.77.51 5.7 1.24 5.73 1.73zM367.31 592a27 27 0 0 1-.7-3.69c2.63-1.22 5.7-2.53 5.94-2.12s-2.95 3.62-5.24 5.81zM370.57 598.29a10.34 10.34 0 0 1-2.44-3.7c1.7-2.9 4.59-7.68 5-7.36s-1.83 8.45-2.56 11.06zM376.55 598.77a4.21 4.21 0 0 1-2.51.84 4.45 4.45 0 0 1-1-.11c.08-2.27.5-11.65 1.12-11.65s1.84 7.85 2.39 10.92zM379.72 593.28a14.18 14.18 0 0 1-1.58 3.56c-1.32-3.36-3.44-9-3-9.25s2.68 2.98 4.58 5.69zM380.65 588.34a29.3 29.3 0 0 1-.42 2.94c-2.14-2-4.36-4.24-4.2-4.64s2.35.57 4.62 1.7zM380.77 584.05v2.74c-2.28-.48-4.41-1-4.44-1.43s2.14-.95 4.44-1.31zM380.64 582.23c-2.2 1-4.4 2-4.61 1.58s2.11-2.88 4.13-5a28.14 28.14 0 0 1 .48 3.42zM379.53 576.38c-1.58 2.82-3.93 6.62-4.34 6.34s1.41-7.37 2.2-10.33a11.11 11.11 0 0 1 2.14 3.99zM263 586.22c.24 8.64 3.67 19.26 11.35 19.26.75 0 11 .19 11.69 0 6.17-2 9.83-13.31 9.13-23.24-.54-7.74-3-16.4-9.5-17.41h-11.7c-7.73-.07-11.26 12.06-10.97 21.39z" fill="#2f2e41"/><path d="M263 586.22c.24 8.64 3.67 19.26 11.35 19.26.75 0 11 .19 11.69 0 6.17-2 9.83-13.31 9.13-23.24-.54-7.74-3-16.4-9.5-17.41h-11.7c-7.73-.07-11.26 12.06-10.97 21.39z" opacity=".2"/><path d="M275.23 586.22c.24 8.64 3.69 19.26 11.35 19.26s11.16-12.27 10.4-23.27c-.58-8.26-3.24-17.42-10.73-17.42-7.71-.03-11.25 12.1-11.02 21.43z" fill="#2f2e41"/><path d="M278.4 586c.19 6.67 2.75 14.84 8.42 14.84s8.23-9.5 7.63-17.93c-.44-6.33-2.42-13.42-7.92-13.42s-8.28 9.3-8.13 16.51z" fill="#fff"/><path d="M288.37 570.89c-.13 2.71-.52 11.34-1.11 11.34s-2-8.16-2.47-11.09a4.39 4.39 0 0 1 2-.49 5.25 5.25 0 0 1 1.58.24zM286.19 582.73c-.3.24-3.09-3.66-5.1-6.57a12.52 12.52 0 0 1 1.82-3.4c1.3 3.37 3.7 9.7 3.28 9.97zM285.66 583.75c-.14.34-3.16-1-5.81-2.33.15-1.07.35-2.12.6-3.17 2.47 2.22 5.39 5.05 5.21 5.5zM285.39 585c0 .41-3 1-5.74 1.42v-3.15c2.78.51 5.71 1.24 5.74 1.73zM280.5 592a26.94 26.94 0 0 1-.68-3.69c2.63-1.22 5.7-2.53 5.92-2.12s-2.94 3.62-5.24 5.81zM283.76 598.29a10.16 10.16 0 0 1-2.42-3.7c1.7-2.9 4.58-7.68 5-7.36s-1.83 8.45-2.58 11.06zM289.68 598.77a4.19 4.19 0 0 1-2.51.84 4.68 4.68 0 0 1-1.05-.11c.1-2.27.51-11.65 1.13-11.65s1.9 7.85 2.43 10.92zM293 593.28a13.86 13.86 0 0 1-1.59 3.56c-1.31-3.36-3.42-9-3-9.25s2.65 2.98 4.59 5.69zM293.85 588.34a26.31 26.31 0 0 1-.41 2.94c-2.16-2-4.36-4.24-4.21-4.64s2.34.57 4.62 1.7zM294 584.05a25 25 0 0 1 0 2.74c-2.26-.48-4.39-1-4.42-1.43s2.1-.95 4.42-1.31zM293.85 582.23c-2.2 1-4.42 2-4.61 1.58s2.09-2.88 4.12-5c.22 1.13.38 2.27.49 3.42zM292.72 576.38c-1.58 2.82-3.92 6.62-4.32 6.34s1.4-7.37 2.19-10.33a10.64 10.64 0 0 1 2.13 3.99zM428.8 586.22c.24 8.64 3.67 19.26 11.35 19.26.75 0 11 .19 11.69 0 6.17-2 9.83-13.31 9.13-23.24-.54-7.74-3-16.4-9.5-17.41h-11.7c-7.77-.07-11.3 12.06-10.97 21.39z" fill="#2f2e41"/><path d="M428.8 586.22c.24 8.64 3.67 19.26 11.35 19.26.75 0 11 .19 11.69 0 6.17-2 9.83-13.31 9.13-23.24-.54-7.74-3-16.4-9.5-17.41h-11.7c-7.77-.07-11.3 12.06-10.97 21.39z" fill="#2f2e41"/><path d="M428.8 586.22c.24 8.64 3.67 19.26 11.35 19.26.75 0 11 .19 11.69 0 6.17-2 9.83-13.31 9.13-23.24-.54-7.74-3-16.4-9.5-17.41h-11.7c-7.77-.07-11.3 12.06-10.97 21.39z" opacity=".2"/><path d="M441 586.22c.24 8.64 3.69 19.26 11.35 19.26s11.17-12.27 10.41-23.27c-.59-8.26-3.17-17.42-10.74-17.42s-11.25 12.1-11.02 21.43z" fill="#2f2e41"/><path d="M444.22 586c.19 6.67 2.75 14.84 8.42 14.84s8.24-9.5 7.63-17.93c-.44-6.33-2.42-13.42-7.91-13.42s-8.36 9.3-8.14 16.51z" fill="#c7c7c7"/><path d="M454.13 570.89c-.13 2.71-.52 11.34-1.11 11.34s-2-8.16-2.47-11.09a4.39 4.39 0 0 1 2-.49 5.2 5.2 0 0 1 1.58.24zM452 582.73c-.31.24-3.16-3.66-5.11-6.57a12.52 12.52 0 0 1 1.82-3.4c1.29 3.37 3.66 9.7 3.29 9.97zM451.42 583.75c-.14.34-3.16-1-5.81-2.33a28.18 28.18 0 0 1 .62-3.17c2.45 2.22 5.37 5.05 5.19 5.5zM451.15 585c0 .41-3 1-5.73 1.42v-3.15c2.77.51 5.7 1.24 5.73 1.73zM446.21 592a26.94 26.94 0 0 1-.68-3.69c2.63-1.22 5.7-2.53 5.93-2.12s-2.9 3.62-5.25 5.81zM449.52 598.29a10.16 10.16 0 0 1-2.42-3.7c1.7-2.9 4.58-7.68 5-7.36s-1.83 8.45-2.58 11.06zM455.44 598.77a4.19 4.19 0 0 1-2.51.84 4.68 4.68 0 0 1-1.05-.11c.1-2.27.51-11.65 1.13-11.65s1.9 7.85 2.43 10.92zM458.71 593.28a13.86 13.86 0 0 1-1.59 3.56c-1.31-3.36-3.42-9-3-9.25s2.67 2.98 4.59 5.69zM459.62 588.34a29.3 29.3 0 0 1-.42 2.94c-2.16-2-4.36-4.24-4.2-4.64s2.3.57 4.62 1.7zM459.72 584.05a25 25 0 0 1 0 2.74c-2.26-.48-4.39-1-4.42-1.43s2.14-.95 4.42-1.31zM459.61 582.23c-2.2 1-4.42 2-4.61 1.58s2.09-2.88 4.12-5c.22 1.13.38 2.27.49 3.42zM458.48 576.38c-1.58 2.82-3.92 6.62-4.32 6.34s1.4-7.37 2.19-10.33a10.64 10.64 0 0 1 2.13 3.99z" fill="#2f2e41"/><path d="M383.92 599.1h51.67a95.67 95.67 0 0 0 5-8.9c.27-1.21-.9-25.71 11.75-25.71 11.08 0 10.53 24.59 10.53 24.59l1.36-2.07.3-3.6-.87-2.12s1.58-15.07.87-17.14-7.49-10.79-7.91-11.25-7.92-1.72-8.41-2.18-21.29-17.61-30.56-19.63-29.47-3.64-42.46-3.64-42.66 3.51-45.09 4.32-24.79 21.72-24.79 21.72-23.75 3.06-26.91 3.77-15.28 8.74-15.84 9.74-2.07 12.3-2.07 12.3a24.77 24.77 0 0 0-1.27 3.43c0 .65 1.48 11.39 1.68 11.94a14 14 0 0 0 2.93 3.29c.51.21 84.78 1.32 85.83 1.11a40.12 40.12 0 0 0 6.69-2.15c.81-.54 2.38-32.19 16.88-32.19 12.71.03 11.7 24.21 10.69 34.37z" fill="#0071f2"/><path d="M313.4 598.79c-23.29-.31-49.19-.69-49.47-.8a13.52 13.52 0 0 1-2.93-3.29c-.21-.55-1.73-11.29-1.68-11.94a23.79 23.79 0 0 1 1.27-3.45s1.58-11.31 2.07-12.31 12.67-9.06 15.83-9.77 26.92-3.77 26.92-3.77-21.5 4.75-22.61 5.78-9.5 10-10.39 11.37S271.3 582.18 271 583s-2.33 6.11-2.54 7a13.5 13.5 0 0 0 1 4.86c.28.27 41.98 3.77 43.94 3.93zM383.92 599.1c.91-9.23 1.83-30-7.44-33.75 4.74.87 11.35 8.63 11.62 28.91l47.49 4.84z" opacity=".1" style="isolation:isolate"/><g opacity=".6" fill="#fff"><path d="M434.39 586a57.46 57.46 0 0 1 3.16-14.36c.43-1.15.92-2.29 1.46-3.4a24.78 24.78 0 0 1 1.89-3.17 16.19 16.19 0 0 1 2.42-2.81 18.21 18.21 0 0 1 1.45-1.18 13.82 13.82 0 0 1 1.59-.9 9.51 9.51 0 0 1 3.64-.85 8.62 8.62 0 0 1 3.69.55 11.46 11.46 0 0 1 5.44 4.94 26.75 26.75 0 0 1 2.84 6.81 42.44 42.44 0 0 1 1.33 7.25 42.16 42.16 0 0 0-1.59-7.19 26.61 26.61 0 0 0-2.83-6.63 11.25 11.25 0 0 0-5.29-4.75 8.16 8.16 0 0 0-3.53-.52 9.49 9.49 0 0 0-3.47.83 10.61 10.61 0 0 0-1.58.88 10.83 10.83 0 0 0-1.41 1.12 15.85 15.85 0 0 0-2.39 2.72 30.35 30.35 0 0 0-3.34 6.48 55.33 55.33 0 0 0-2.14 7 63.86 63.86 0 0 0-1.34 7.18zM356 586a57.2 57.2 0 0 1 3-14 30.4 30.4 0 0 1 3.17-6.51 21.29 21.29 0 0 1 2.29-2.81 13.37 13.37 0 0 1 2.92-2.21 11.47 11.47 0 0 1 3.48-1.09 10.34 10.34 0 0 1 9.62 4.2 23 23 0 0 1 3.52 6.33 37.08 37.08 0 0 1 1.84 6.95 35.94 35.94 0 0 0-2.05-6.87 23 23 0 0 0-3.57-6.16 11 11 0 0 0-5.8-3.8 10.56 10.56 0 0 0-3.5-.19 10.72 10.72 0 0 0-3.34 1.08 13.65 13.65 0 0 0-2.82 2.09 19.08 19.08 0 0 0-2.24 2.75 31.31 31.31 0 0 0-3.17 6.34 52.71 52.71 0 0 0-2.06 6.87A62.78 62.78 0 0 0 356 586zM384.63 568.12c3.29-1 6.58-1.93 9.89-2.87l18.48-1.79 18.47-1.58 6.07-2.09 6.05-2.06-6 2.17-6 2.16L413 563.8l-18.48 1.58c-3.26.97-6.58 1.84-9.89 2.74zM308 553.51l-10 4.27-10.1 4.22-4 7.5-.09-.15c9.67 0 19.36.11 29 .25l11.53-6.79 14.37-4.28 14.39-4.24-14.28 4.39-14.36 4.33L313 569.8h-.08c-9.68 0-19.37-.21-29-.3h-.19l.1-.18 4.1-7.44 10.07-4.19z"/></g><g opacity=".3"><path d="M307.26 553.49 287 558.24l-2.51.62c-.43.09-.84.22-1.25.33l-.3.1h-.15l-.11.09a5.77 5.77 0 0 0-.42.44c-1.13 1.3-2.17 2.71-3.17 4.07a692.42 692.42 0 0 0-6.22 8.33c2-2.85 4-5.68 6-8.47 1-1.39 2.06-2.79 3.17-4.1a3.63 3.63 0 0 1 .47-.49l.14-.11h.16l.32-.11 1.26-.35L287 558c3.39-.8 6.76-1.59 10.15-2.33zM372.55 554.3l-6.16 2-6.16 1.91-12.32 3.79c-2 .65-4.1 1.29-6.14 2a19.57 19.57 0 0 0-2.91 1.33l-2.86 1.46-5.75 3-5.78 2.86 5.72-3 5.73-3 2.86-1.48a19 19 0 0 1 2.93-1.37c2-.71 4.09-1.37 6.13-2l12.33-3.8 6.19-1.85zM388.1 592.67l5.93-.12 6-.1 11.87-.17 11.89-.11 5.94-.1h2.64c.11 0 .17-.12.27-.2.65-.75 1.26-1.52 1.84-2.33-.57.81-1.14 1.58-1.78 2.37-.09.08-.16.23-.3.24a1.28 1.28 0 0 1-.39 0h-2.22l-5.95.14-11.88.23-11.96.08h-5.95z"/><path d="M429.77 552.86c.61 3 1.23 6 1.82 9.07l-1.19 7.19-1.22 7.17q-1.23 7.13-2.56 14.25c.72-4.75 1.47-9.6 2.27-14.38l1.22-7.17 1.24-7.17c-.54-2.88-1.06-5.92-1.58-8.96zM397 553.46c-.73 4-1.5 7.91-2.29 11.9q0 6.51-.19 13l-.15 6.49-.2 6.47v-13q0-6.51.2-13 1.28-5.94 2.63-11.86zM441.47 549.88c.42 1.3.8 2.58 1.18 3.88s.76 2.61 1.1 3.91c-.21 1-.42 1.9-.64 2.85s-.46 1.9-.71 2.85c.16-1 .32-1.93.51-2.9s.36-1.91.55-2.86c-.38-1.3-.71-2.62-1.06-3.91s-.7-2.49-.93-3.82z"/><path d="m387.02 576.78 6.13-.46 6.14-.43 12.28-.84 12.27-.72 6.15-.37 6.14-.32-6.13.46-6.14.43-12.27.82-12.28.75-6.15.36-6.14.32zM422 554.66c.11.49.21 1 .32 1.51h-.08l2.88-.32c1-.1 1.93-.19 2.88-.25l-.12.17-.29-1.39.15.09c-1.08 0-2.14.13-3.17.14 1-.15 2.1-.26 3.17-.38h.11v.12l.33 1.37v.16H428l-2.88.24c-1 .09-1.93.14-2.9.2h-.08c-.01-.64-.07-1.15-.14-1.66zM265.91 575.21c-.38 2-.86 4-1.33 5.94l-.18.73v.27a2.16 2.16 0 0 0 0 .36c0 .52.08 1 .11 1.58 0 1 .13 2.06.16 3.08-.16-1-.27-2-.38-3a14.58 14.58 0 0 0-.13-1.47v-.38a.74.74 0 0 1 0-.21v-.26l.18-.75c.46-1.99.95-3.96 1.57-5.89zM341.41 575.21c.39 1 .76 2 1.12 3s.71 2 1 3.09v2.31a19.83 19.83 0 0 1-.09 2.31c0-.76-.1-1.58-.12-2.31s0-1.58 0-2.31c-.36-1-.66-2.06-1-3.17s-.6-1.87-.91-2.92z"/><path d="m259.4 583.22 5.71 5.69 20.46.68c3.4.11 6.81.25 10.23.33H306l41 .08 8.31-2-8.31 2.11-40.93.11h-10.26c-3.4-.09-6.81-.25-10.23-.36l-20.43-.81z"/></g><path d="M402.2 552.68c.67.7 27.33-.87 27.93-.95a102.44 102.44 0 0 0 11.34-2.51c.47-.48-16.2-12.5-17.61-13.1s-16.86-1.58-19-.76c-1.71.7-3.43 16.53-2.66 17.32z" fill="#2f2e41"/><path d="M402.2 552.68c.67.7 27.33-.87 27.93-.95a102.44 102.44 0 0 0 11.34-2.51c.47-.48-16.2-12.5-17.61-13.1s-16.86-1.58-19-.76c-1.71.7-3.43 16.53-2.66 17.32z" opacity=".2"/><path d="M403.93 552c.62.64 25-.8 25.52-.87a91.2 91.2 0 0 0 10.31-2.28c.42-.42-14.81-11.39-16.11-11.95s-15.38-1.49-17.33-.7c-1.52.57-3.1 15.03-2.39 15.8z" fill="#2f2e41"/><g opacity=".1" fill="#fff"><path d="M420.88 536.41 404 546.79a57.69 57.69 0 0 1 1.44-8.85l3.37-2.07a115.61 115.61 0 0 1 12.07.54zM434.06 544.13l-12 7.38c-2.19.13-4.64.24-7 .35L431.1 542zM439 548l-3 1.79-2.17.46 4.51-2.78z"/></g><path d="M422.47 536.55c.47.08 6 14.25 5.87 14.58s1.09 0 1 0-6-13.79-5.86-14.36c.13-.22-1.01-.22-1.01-.22zM307.26 553.49c.68 0 63.64.81 65.29.81s24.36-1.09 24.65-1.24 2.5-16.65 1.82-18c-.17-.36-30.7-1.95-34.43-1.95s-34.45 1.35-36.07 1.59-22.37 18.77-21.26 18.79z" fill="#2f2e41"/><path d="M307.26 553.49c.68 0 63.64.81 65.29.81s24.36-1.09 24.65-1.24 2.5-16.65 1.82-18c-.17-.36-30.7-1.95-34.43-1.95s-34.45 1.35-36.07 1.59-22.37 18.77-21.26 18.79z" opacity=".2"/><path d="M309.22 552.7c.63 0 59.81.76 61.35.76s23.53-1 23.75-1.17 1.74-14.74 1.11-16c-.18-.35-29.48-1.84-33-1.84s-32.37 1.25-33.89 1.58-20.36 16.65-19.32 16.67z" fill="#2f2e41"/><path d="m354 534.73-29.51 18.16-12.67-.16 28.28-17.41zm19 .16-29.67 18.24 6.33.08 29.31-18zm11.68 18 7.08-.36 2.83-1.76c.14-1.08.3-2.6.46-4.26zm3.17-17.16-28.56 17.65h1.45l28.5-17.59zm-53.93 0-20.13 12.38c-1.11 1-2.09 1.9-2.89 2.64l24.57-15.1z" fill="#fff" opacity=".1" style="isolation:isolate"/><path d="M332.23 570c-.89.88.66 6.33 2 6.74s10.59-.87 11.61-1.14 11.4-3.37 12.27-4.32 1.69-8.71.74-9.25-16.53 3.52-18.21 4a44.48 44.48 0 0 0-8.41 3.97zM261.9 572.76a24.56 24.56 0 0 0 3.39 3.67 9.94 9.94 0 0 0 3.89.67 17.82 17.82 0 0 0 2.23-5.12c0-.71-4.05-8.4-4.74-8.25s-4.56 2.54-4.75 3.3a18.06 18.06 0 0 0-.02 5.73z" fill="#fff"/><path d="M262.14 572.52c0 .51 1.3 2.06 1.45 2.26a14.83 14.83 0 0 1-1.69-2 18.35 18.35 0 0 1 0-5.73c.21-.76 4.05-3.17 4.75-3.3a15.49 15.49 0 0 0-4 3.47c-.09.6-.48 4.78-.51 5.3z" fill="#dbdbdb"/><path d="M272.84 572.33c.89-.3 19.17-.85 22.77-.85s27.23.55 28.84 1.1-2 10.18-3.43 10.9-24.2 2.52-25.76 2.52-19.35-2.5-20.41-3.16-3.48-10-2.01-10.51z" fill="#2f2e41"/><path d="M323.68 578.51c-.08.2-.15.39-.23.58l-50.39-.9a2.49 2.49 0 0 0-.14-.6z" fill="#0071f2"/><path d="M275.23 594.24h47.65c1 0-4.14-3.09-5-3.16s-38.15 0-38.9 0-4.57 3.16-3.75 3.16zM263.2 592.22a62 62 0 0 0 6.68 0c.87-.19 2.9-4.75 2.77-5.51s-4.07-3-4.58-3.17a12.73 12.73 0 0 0-4.44 0c-.38.33-.91 8.6-.43 8.68zM331.69 586c-.64.83 3.7 5.77 5.36 6.34s11.8.63 12.15.52a20.83 20.83 0 0 0 .19-6 15.26 15.26 0 0 0-2.52-3.87 77.07 77.07 0 0 0-10.73.84 18.75 18.75 0 0 0-4.45 2.17z" fill="#2f2e41"/><path d="m406.24 551.12-.27-.89a33.9 33.9 0 0 1 4.29-4 16.63 16.63 0 0 1 7.11 1.18 8.61 8.61 0 0 1 .11 3.16c-.08.4-5.27 1.28-6.16 1.32-1.7-.18-3.4-.43-5.08-.77z" fill="#0071f2"/><path d="m406 550.23.27.89s-2.22 1.67-2.3 1.77 0 .57 0 .57h-2.27v-3.17a6.4 6.4 0 0 0 1 .45 29.09 29.09 0 0 0 3.3-.51z" fill="#0071f2"/><path fill="#bcbec0" d="M489.21 484.05h13.32v17.52h-13.32z"/><path fill="#d1d3d4" d="M502.52 484.05H513v17.52h-10.48z"/><path fill="#939598" d="M487.72 478.1h14.81v5.95h-14.81z"/><path fill="#a7a9ac" d="M502.52 478.1h11.6v5.95h-11.6z"/><path fill="#bcbec0" d="M549.28 606.66h-104.2l-3.5-49.08 107.7-1.42v50.5z"/><path fill="#d1d3d4" d="m549.28 556.16 37.43-46.87 29.79 46.87-4.64 50.5h-62.58v-50.5z"/><path fill="#a7a9ac" d="m586.25 512.25 30.78 47.59h7.82l-40.6-65.42H476.33l-40.06 70.85h119.28l30.7-53.02z"/><path fill="#fbfaff" d="M576.98 539.68h16.48v23.55h-16.48z"/><path fill="#d1d3d4" d="M586.13 541.62h5.3v8.97h-5.3zM579.01 541.62h5.3v8.97h-5.3zM586.13 552.29h5.3v8.97h-5.3zM579.01 552.29h5.3v8.97h-5.3z"/><path fill="#fbfaff" d="M456.34 574.9h16.48v23.55h-16.48z"/><path fill="#d1d3d4" d="M458.37 576.82h5.3v8.95h-5.3zM465.48 576.82h5.3v8.95h-5.3zM458.37 587.51h5.3v8.97h-5.3zM465.48 587.51h5.3v8.97h-5.3z"/><path fill="#fbfaff" d="M486.6 574.9h16.48v23.55H486.6z"/><path fill="#d1d3d4" d="M488.64 576.82h5.3v8.95h-5.3zM495.76 576.82h5.3v8.95h-5.3zM488.64 587.51h5.3v8.97h-5.3zM495.76 587.51h5.3v8.97h-5.3z"/><path fill="#fbfaff" d="M516.89 574.9h16.48v23.55h-16.48z"/><path fill="#d1d3d4" d="M518.92 576.82h5.3v8.95h-5.3zM526.03 576.82h5.3v8.95h-5.3zM518.92 587.51h5.3v8.97h-5.3zM526.03 587.51h5.3v8.97h-5.3z"/><path fill="#fbfaff" d="M576.13 573.63h18.19v33.01h-18.19z"/><path fill="#d1d3d4" d="M583.27 575.92h3.92v4.94h-3.92zM578.14 575.92h3.92v4.94h-3.92zM581.09 597.59h8.25v1.19h-8.25zM588.39 575.92h3.92v4.94h-3.92zM583.27 582.16h3.92v4.94h-3.92zM578.14 582.16h3.92v4.94h-3.92zM588.39 582.16h3.92v4.94h-3.92zM583.27 588.41h3.92v4.94h-3.92zM578.14 588.41h3.92v4.94h-3.92zM588.39 588.41h3.92v4.94h-3.92z"/><path d="M519.24 511.32h-23.92L483 526.67h27.1z" fill="#939598"/><path fill="#bcbec0" d="M501.13 524.05v18.62h-13.32v-18.62l6.65-8.32 6.67 8.32z"/><path fill="#d1d3d4" d="M501.13 524.03h10.46l-10.46 18.62v-18.62z"/><path fill="#fbfaff" d="M490.33 524.33h7.57v12.78h-7.57z"/><path fill="#d1d3d4" d="M491.27 525.22h2.43v4.11h-2.43zM494.52 525.22h2.43v4.11h-2.43zM491.27 530.08h2.43v6.1h-2.43zM494.52 530.08h2.43v6.1h-2.43z"/><g data-name="freepik--Bills--inject-2"><path d="M494.08 470.43v117.72h39.43v.17a12.49 12.49 0 0 0 12.21 12.52h.44a9.21 9.21 0 0 0 1.28-.06l2.35-.49a14.34 14.34 0 0 0 1.68-.67 8.67 8.67 0 0 0 .79-.43 1.85 1.85 0 0 0 .4-.24 10.59 10.59 0 0 0 1-.71l.16-.13a5.69 5.69 0 0 0 .7-.6l.35-.32A12.19 12.19 0 0 0 558 592v-.12c.09-.29.17-.61.24-.92a7.11 7.11 0 0 0 .2-1.21v-.56a.54.54 0 0 0 0-.18v-118.4a12.62 12.62 0 0 1 12.67-12.55h.6-65.23a12.4 12.4 0 0 0-12.4 12.37z" fill="#ebebeb"/><path fill="#dbdbdb" d="M502.7 490.02h46.72v2.15H502.7zM502.7 496.06h46.72v2.15H502.7zM502.7 502.09h46.72v2.15H502.7zM502.7 508.13h46.72v2.15H502.7zM502.7 514.16h46.72v2.15H502.7zM502.7 520.19h46.72v2.15H502.7zM502.7 526.23h46.72v2.15H502.7zM502.7 532.25h46.72v2.15H502.7zM502.7 538.28h46.72v2.15H502.7zM502.7 544.32h46.72v2.15H502.7zM502.7 550.35h46.72v2.15H502.7zM502.7 556.39h46.72v2.15H502.7zM502.7 562.42h46.72v2.15H502.7zM502.7 568.46h46.72v2.15H502.7zM570.94 458a12.53 12.53 0 0 0-12.53 12.54v23.67h25.06v-23.6A12.54 12.54 0 0 0 571 458zM475.81 588.15v.17A12.5 12.5 0 0 0 488 600.84h57.69a12.49 12.49 0 0 1-12.21-12.52v-.17z"/><path d="M505.84 577.71h-1v3.55a.36.36 0 0 1-.28.42.35.35 0 0 1-.42-.29.29.29 0 0 1 0-.13v-3.49h-1a.36.36 0 0 1-.34-.36.35.35 0 0 1 .33-.36h2.81a.36.36 0 0 1 .36.36.39.39 0 0 1-.46.3zM510.54 577.55a2.41 2.41 0 0 1 0 3.31 2.13 2.13 0 0 1-1.55.69 2.22 2.22 0 0 1-1.61-.69 2.45 2.45 0 0 1 0-3.31 2.22 2.22 0 0 1 1.61-.69 2.13 2.13 0 0 1 1.55.69zm-.09 1.65a1.68 1.68 0 0 0-.43-1.13 1.46 1.46 0 0 0-1-.47 1.44 1.44 0 0 0-1.07.47 1.7 1.7 0 0 0 0 2.27 1.49 1.49 0 0 0 1.07.47 1.46 1.46 0 0 0 1-.47 1.75 1.75 0 0 0 .41-1.14zM514.89 577.71h-1v3.55a.36.36 0 0 1-.72 0v-3.49h-1a.36.36 0 0 1 0-.72h2.8a.36.36 0 0 1 .36.36.38.38 0 0 1-.44.3zM518.05 580.47h-1.59l-.32.85a.37.37 0 0 1-.35.23h-.11a.35.35 0 0 1-.22-.46l1.44-3.86a.36.36 0 0 1 .35-.22.34.34 0 0 1 .34.22l1.45 3.86a.36.36 0 0 1-.22.46.13.13 0 0 1-.12 0 .33.33 0 0 1-.33-.23zm-.28-.71-.52-1.41-.53 1.41zM519.94 581.26v-3.86a.36.36 0 0 1 .36-.36.37.37 0 0 1 .36.36v3.48h1.76a.36.36 0 0 1 0 .72h-2.12a.35.35 0 0 1-.36-.34zM524 578a.48.48 0 0 1 .48.49.5.5 0 0 1-.48.49.51.51 0 0 1-.49-.5.49.49 0 0 1 .49-.48zm0 2.57a.49.49 0 0 1 0 1 .49.49 0 0 1 0-1zM535.29 578h14.13v3.27h-14.13zM530.58 575.6a.36.36 0 0 1 .36.36v.14a3.29 3.29 0 0 1 1.28.46.46.46 0 0 1-.2.88.46.46 0 0 1-.25-.08 3.44 3.44 0 0 0-.86-.37v1.68c1.28.33 1.84.84 1.84 1.74a1.77 1.77 0 0 1-1.82 1.66v.46a.37.37 0 0 1-.35.38.37.37 0 0 1-.37-.38V582a3.54 3.54 0 0 1-1.74-.66.46.46 0 0 1-.23-.4.45.45 0 0 1 .45-.47.43.43 0 0 1 .29.1 3.06 3.06 0 0 0 1.28.56v-1.67c-1.28-.32-1.81-.78-1.81-1.75a1.71 1.71 0 0 1 1.77-1.62v-.17a.38.38 0 0 1 .36-.32zm-.34 2.89V577a.73.73 0 0 0-.82.72c0 .36.17.55.82.77zm.67 1.17v1.6a.74.74 0 0 0 .84-.74c0-.41-.2-.65-.84-.86z" fill="#0071f2"/><path fill="#2f2e41" d="m448.481 566.911 27.573-68.348 43.958 17.734-27.573 68.348z"/><path opacity=".2" d="m448.481 566.911 27.573-68.348 43.958 17.734-27.573 68.348z"/><path fill="#2f2e41" d="m445.292 565.613 27.573-68.348L516.823 515l-27.573 68.348z"/><path fill="#dbdbdb" d="m465.805 524.526 3.408-8.449 8.448 3.408-3.408 8.449zM475.402 528.386l3.408-8.448 8.449 3.408-3.408 8.448z"/><path fill="#0071f2" d="m484.957 532.272 3.408-8.448 8.449 3.408-3.409 8.448zM496.013 536.473l3.373-8.474 8.473 3.372-3.372 8.474z"/><path fill="#a7a9ac" d="m461.888 534.217 3.408-8.449 8.449 3.409-3.408 8.448zM471.494 538.095l3.408-8.449 8.449 3.409-3.408 8.448zM481.068 541.955l3.408-8.449 8.449 3.409-3.409 8.448z"/><path fill="#dbdbdb" d="m490.617 545.861 3.408-8.448 8.448 3.408-3.408 8.448z"/><path fill="#a7a9ac" d="m457.98 543.912 3.41-8.448 8.448 3.408-3.409 8.448zM467.565 547.772l3.408-8.449 8.448 3.409-3.408 8.448zM477.151 551.646l3.409-8.448 8.448 3.408-3.408 8.448z"/><path fill="#dbdbdb" d="m486.73 555.509 3.409-8.449 8.448 3.409-3.408 8.448z"/><path fill="#a7a9ac" d="m454.264 553.63 3.372-8.474 8.474 3.372-3.372 8.474zM463.648 557.463l3.408-8.448 8.449 3.408-3.408 8.448zM473.254 561.341l3.408-8.448 8.449 3.408-3.408 8.448z"/><path fill="#dbdbdb" d="m482.814 565.2 3.408-8.448 8.449 3.408-3.408 8.448z"/><path fill="#a7a9ac" d="m450.18 563.313 3.408-8.449 8.449 3.409-3.408 8.448zM459.74 567.172l3.408-8.449 8.449 3.409-3.408 8.448z"/><path fill="#dbdbdb" d="m469.324 571.032 3.408-8.449 8.449 3.408-3.409 8.449zM478.908 574.891l3.408-8.448 8.448 3.408-3.408 8.449z"/><path d="M470.84 520.68a.65.65 0 0 1 .82-.39.62.62 0 0 1 .34.8.65.65 0 0 1-.82.39.61.61 0 0 1-.34-.8s-.01.02 0 0zm.85.34a.37.37 0 0 0-.13-.47c-.13 0-.32 0-.4.25a.35.35 0 0 0 .13.47c.15.07.32-.06.4-.27zm-1.11 1.46 2.5-1.55a.19.19 0 0 1 .15 0 .13.13 0 0 1 .08.18.11.11 0 0 1 0 .08l-2.57 1.55a.11.11 0 0 1-.15 0 .16.16 0 0 1-.09-.19zm1.29 0a.63.63 0 0 1 .81-.4.66.66 0 0 1 .34.86.62.62 0 0 1-.79.41h-.05a.64.64 0 0 1-.38-.81zm.85.35a.38.38 0 0 0-.13-.47c-.13-.07-.32 0-.4.24a.33.33 0 0 0 .11.46c.11.13.28 0 .36-.18zM488.88 528.63a1.4 1.4 0 0 1 1.8-.74 1.44 1.44 0 0 1 .69.6.22.22 0 0 1-.07.3.22.22 0 0 1-.29-.06.9.9 0 0 0-.49-.41 1 1 0 0 0-.73 0 .87.87 0 0 0-.5.51.9.9 0 0 0 0 .72 1 1 0 0 0 .54.51 1 1 0 0 0 .64 0 .23.23 0 0 1 .27.15.22.22 0 0 1-.14.26 1.35 1.35 0 0 1-.93 0 1.38 1.38 0 0 1-.79-1.78zM491.24 530.85l.84-2.07a.19.19 0 0 1 .24-.13l1.15.46a.22.22 0 0 1 .11.27.19.19 0 0 1-.24.13l-1-.39-.26.66.82.32a.21.21 0 0 1 .12.27.2.2 0 0 1-.26.13l-.82-.33-.26.64 1 .38a.24.24 0 0 1 .12.27.2.2 0 0 1-.25.13l-1.15-.45a.22.22 0 0 1-.16-.29zM499.49 532.92a1.4 1.4 0 0 1 1.8-.75 1.46 1.46 0 0 1 .71.61.23.23 0 0 1-.08.29.19.19 0 0 1-.28-.06.92.92 0 0 0-.49-.42 1 1 0 0 0-.73 0 1 1 0 0 0-.52.52.91.91 0 0 0 .53 1.22.91.91 0 0 0 .65 0 .22.22 0 0 1 .26.16.2.2 0 0 1-.14.25 1.35 1.35 0 0 1-.93 0 1.37 1.37 0 0 1-.78-1.78z" fill="#2f2e41"/><path d="m469 531.08-1.71 1.72a.2.2 0 0 1-.23 0H467a.21.21 0 0 1 0-.29l1.5-1.51-.9-.36a.2.2 0 0 1-.13-.26.23.23 0 0 1 .27-.12l1.21.49h.05v.35zM478 536.23a.91.91 0 0 1-1.18.5.9.9 0 0 1-.5-1.17.92.92 0 0 1 .68-.56.68.68 0 0 1 0-.4.64.64 0 0 1 .86-.24.58.58 0 0 1 .05 1 .89.89 0 0 1 .09.87zm-.38-.16a.49.49 0 1 0-.92-.36.51.51 0 0 0 .28.64.5.5 0 0 0 .68-.28zm-.23-1.29a.21.21 0 0 0 .09.28.24.24 0 0 0 .29-.12.24.24 0 0 0-.12-.28.22.22 0 0 0-.28.12zM486.27 538.68a.92.92 0 0 1 1.19-.5.9.9 0 0 1 .54 1.11.67.67 0 0 1 0 .2 2 2 0 0 1-.42.67 1.32 1.32 0 0 1-.7.43 1.18 1.18 0 0 1-.59 0 .2.2 0 0 1-.13-.26.21.21 0 0 1 .27-.12.81.81 0 0 0 .38 0 1 1 0 0 0 .32-.15l.07-.08a.73.73 0 0 1-.36 0 .92.92 0 0 1-.64-1.12 1.22 1.22 0 0 1 .07-.18zm.38.16a.48.48 0 1 0 .66-.27.51.51 0 0 0-.66.27z" fill="#fff"/><path d="M495.81 543.06a.21.21 0 0 1 .28-.13l1.1.44a.23.23 0 0 1 .1.31.24.24 0 0 1-.28.11l-1.09-.45a.21.21 0 0 1-.13-.26z" fill="#2f2e41"/><path d="M464.68 542.3a.19.19 0 0 1-.25.11l-.18.26a.21.21 0 0 1-.27.12.21.21 0 0 1-.11-.27l.11-.27-1.1-.43a.17.17 0 0 1-.11-.09.2.2 0 0 1 0-.27l2-1.09h.23l-.57 1.41a.31.31 0 0 1 .41.15.31.31 0 0 1-.14.41zm-.2-1.29-1 .58.7.28zM474.12 545.13a.9.9 0 0 1 0 .72 1 1 0 0 1-.5.51.9.9 0 0 1-.72 0 .85.85 0 0 1-.5-.5.21.21 0 0 1 .15-.26.2.2 0 0 1 .24.09.51.51 0 0 0 .27.27.47.47 0 0 0 .4 0 .44.44 0 0 0 .27-.28.42.42 0 0 0 0-.38.52.52 0 0 0-.67-.27.22.22 0 0 1-.28-.12v-.06a.08.08 0 0 1 0-.07l.46-.86a.19.19 0 0 1 .16-.1h.13l1 .42a.22.22 0 0 1 .13.28.24.24 0 0 1-.29.12l-.86-.35-.19.34a.57.57 0 0 1 .26 0 1 1 0 0 1 .54.5zM483.78 549.77a.93.93 0 0 1-1.19.51.91.91 0 0 1-.54-1.11.23.23 0 0 1 .06-.19 2.71 2.71 0 0 1 .42-.69 1.39 1.39 0 0 1 .7-.41 1.18 1.18 0 0 1 .59 0 .21.21 0 0 1 .14.24.2.2 0 0 1-.26.13.59.59 0 0 0-.37 0 1 1 0 0 0-.33.15l-.07.08a.73.73 0 0 1 .36 0 .92.92 0 0 1 .56 1.16.37.37 0 0 1-.07.13zm-.38-.16a.51.51 0 1 0-.66.28.5.5 0 0 0 .66-.28z" fill="#fff"/><path d="M492 552.82a.19.19 0 0 1-.11-.25.2.2 0 0 1 .25-.11l1.43.57a.21.21 0 0 1 .11.26.21.21 0 0 1-.26.11zm1.29-.54a.24.24 0 0 1-.32.14.25.25 0 0 1-.14-.33.27.27 0 0 1 .34-.15.25.25 0 0 1 .15.34zm-.59 1.47a.26.26 0 0 1-.34.13.27.27 0 0 1-.14-.34.28.28 0 0 1 .35-.14.27.27 0 0 1 .17.34z" fill="#2f2e41"/><path d="m459.6 549.6-.84 2.07a.19.19 0 0 1-.26.11.19.19 0 0 1-.12-.24l.75-1.68h-.29a.23.23 0 0 1-.13-.17.21.21 0 0 1 .18-.23l.53-.09h.19zM470 556.25a.2.2 0 0 1-.26.12l-1.29-.5a.18.18 0 0 1-.11-.13.21.21 0 0 1 .11-.27l1.43-.51a.47.47 0 0 0 .28-.29.5.5 0 0 0-.28-.63.55.55 0 0 0-.36 0h-.14a.19.19 0 0 1-.26-.08.21.21 0 0 1 .12-.27h.15a.94.94 0 0 1 .66 0 .86.86 0 0 1 .51.54.79.79 0 0 1 0 .64.86.86 0 0 1-.53.51l-.91.34.76.31a.21.21 0 0 1 .12.22zM479.81 558.69a1 1 0 0 1 0 .72 1 1 0 0 1-.51.51.93.93 0 0 1-.73 0 .9.9 0 0 1-.5-.51.2.2 0 0 1 .08-.26.21.21 0 0 1 .28.09.53.53 0 0 0 .28.29.5.5 0 0 0 .38 0 .51.51 0 0 0 .29-.27.5.5 0 0 0-.29-.67.24.24 0 0 1-.11-.13.21.21 0 0 1 .09-.28l.5-.21-.56-.24a.21.21 0 0 1-.13-.26.22.22 0 0 1 .27-.12l1 .41a.22.22 0 0 1 .13.28v.09h-.06l-.62.28a1.25 1.25 0 0 1 .21.28z" fill="#fff"/><path d="m489.48 562.64-.65.41.18.75a.2.2 0 0 1-.13.24.15.15 0 0 1-.13 0 .17.17 0 0 1-.13-.13l-.15-.63-.56.34a.15.15 0 0 1-.16 0 .24.24 0 0 1-.11-.09.21.21 0 0 1 0-.26l.66-.41-.19-.75a.19.19 0 0 1 .14-.24.19.19 0 0 1 .24.13l.17.62.54-.34a.21.21 0 0 1 .28.08.18.18 0 0 1 0 .28z" fill="#2f2e41"/><path d="M456 561.52a.28.28 0 0 1 .16.37.28.28 0 1 1-.52-.21.27.27 0 0 1 .35-.16zM464.7 564.18a1.63 1.63 0 0 1 .58-.74.85.85 0 0 1 .81-.13.88.88 0 0 1 .5.65 1.63 1.63 0 0 1-.1.93 1.58 1.58 0 0 1-.58.75.85.85 0 0 1-.81.13.88.88 0 0 1-.5-.65 1.6 1.6 0 0 1 .1-.94zm1.39.56a1.2 1.2 0 0 0 .09-.7.38.38 0 0 0-.24-.35.55.55 0 0 0-.43.08 1.31 1.31 0 0 0-.41.57 1.36 1.36 0 0 0-.09.69.45.45 0 0 0 .25.35.46.46 0 0 0 .42-.09 1.18 1.18 0 0 0 .41-.55z" fill="#fff"/><path d="M474.66 567.89a.24.24 0 0 1 .3-.12l1.08.44a.21.21 0 0 1 .12.26.2.2 0 0 1-.26.13l-1.08-.43a.23.23 0 0 1-.16-.28zm-.26.66a.22.22 0 0 1 .28-.14l1.08.43a.23.23 0 0 1-.18.43l-1.08-.44a.21.21 0 0 1-.12-.28zM484.63 572.43l-.5-.19a.2.2 0 0 1-.1-.27.2.2 0 0 1 .24-.13l.49.19.2-.48a.21.21 0 0 1 .27-.13.21.21 0 0 1 .12.28l-.19.49.49.2a.21.21 0 0 1-.16.39l-.49-.2-.2.49a.22.22 0 0 1-.27.12.21.21 0 0 1-.11-.28zM483 525.17a.18.18 0 0 1-.22.09l-.44-.18c-.4.44-1.4 1.59-1.66 1.92a.27.27 0 0 1-.12.09h-.12a.23.23 0 0 1-.12-.12s-.28-.65-.36-.87a.58.58 0 0 1 0-.4h.1a.22.22 0 0 1 .11.1.54.54 0 0 0 .09.22l.07.18.08.17.08.19c.25-.31 1.28-1.52 1.58-1.81a.17.17 0 0 1 .14 0l.58.23a.17.17 0 0 1 .2.15.08.08 0 0 1 .01.04z" fill="#2f2e41"/><path fill="#fff" d="m471.192 511.156 3.592-8.902 37.188 15.002-3.592 8.903z"/></g><g data-name="freepik--Coin--inject-2"><path d="M421.9 560.4c-43 0-43.11 61.2 0 61.2s43.1-61.2 0-61.2z" fill="#0071f2"/><path d="M421.9 560.4c-43 0-43.11 61.2 0 61.2s43.1-61.2 0-61.2z" fill="#fff" opacity=".1" style="isolation:isolate"/><path d="M421.9 557.56c-43 0-43.11 61.2 0 61.2s43.1-61.2 0-61.2z" fill="#0071f2"/><path d="M421.9 557.56c-43 0-43.11 61.2 0 61.2s43.1-61.2 0-61.2z" opacity=".2"/><path d="M448.07 593.89c-2.3 10.53-11 19.66-26.18 19.66-35.77 0-35.71-50.79 0-50.79h.7c-33.61.61-33.45 48.71.65 48.71 13.92.02 22.22-8.03 24.83-17.58z" opacity=".1" style="isolation:isolate"/><path d="M422.16 569.45a1.09 1.09 0 0 1 1.11 1v1.7a16 16 0 0 1 8.29 3c.42.3.65.55.65 1a1.16 1.16 0 0 1-1.21 1.06 1.22 1.22 0 0 1-.84-.3 13.82 13.82 0 0 0-7-2.8V586c7.08 1.39 10.06 3.79 10.06 8 0 4.52-4.15 7.68-10 7.88v3.36a1.13 1.13 0 0 1-1.24 1 1.12 1.12 0 0 1-1-1v-3.37a18.35 18.35 0 0 1-10.48-4.13 1.09 1.09 0 0 1-.54-.88 1.17 1.17 0 0 1 1.17-1.07 1.21 1.21 0 0 1 .83.3 15.8 15.8 0 0 0 9.08 3.88V587.8c-7-1.4-9.87-3.75-9.87-8s4.1-7.58 9.77-7.68v-1.62a1.09 1.09 0 0 1 1.14-1zm-1 16.19V574c-4.52.09-7.5 2.55-7.5 5.63-.03 2.9 1.47 4.68 7.47 6.01zm2 2.6V600c4.66-.09 7.68-2.56 7.68-5.8 0-2.91-1.62-4.72-7.68-6z" fill="#fff"/></g></g><path d="M485.38 14.63c-66.66 0-66.78 94.81 0 94.81s66.77-94.81 0-94.81z" fill="#ebebeb"/><path d="M525.92 70.92c-3.55 16.31-17.07 30.45-40.54 30.45-55.42 0-55.33-78.68 0-78.68h1.08c-52.07 1-51.81 75.46 1.08 75.46 21.46 0 34.34-12.44 38.38-27.23z" fill="#dbdbdb"/><path d="M485.78 33.06a1.68 1.68 0 0 1 1.76 1.58v2.57a24.72 24.72 0 0 1 12.87 4.62c.65.46 1 .86 1 1.52a1.78 1.78 0 0 1-1.87 1.65 1.83 1.83 0 0 1-1.28-.45 21.62 21.62 0 0 0-10.82-4.29v18.47c10.88 2.19 15.54 6 15.54 12.41 0 7-6.43 11.94-15.44 12.21v5.14a1.74 1.74 0 0 1-3.46 0v-5.22a28.4 28.4 0 0 1-16.23-6.44 1.72 1.72 0 0 1-.79-1.38 1.87 1.87 0 0 1 2.09-1.64 1.9 1.9 0 0 1 1 .45 24.25 24.25 0 0 0 14.07 6V61.51c-10.83-2.17-15.32-5.81-15.32-12.41s6.34-11.75 15.1-11.94v-2.58a1.7 1.7 0 0 1 1.78-1.52zm-1.58 25.08v-18c-7 .13-11.58 4-11.58 8.71-.04 4.48 2.26 7.24 11.58 9.29zm3.16 4v18.21c7.22-.14 11.9-4 11.9-9 0-4.5-2.52-7.27-11.9-9.22zM736.3 227.88c-60 10.78-44.17 99.7 16 88.92s44.1-99.7-16-88.92z" fill="#dbdbdb"/><path d="M741.91 226.88c-57.2 10.29-41.35 99.18 16 88.9s41.31-99.18-16-88.9z" fill="#ebebeb"/><path d="M786.17 273.43c-.31 15.84-9.53 31.18-29.67 34.8-47.6 8.53-60.71-65.28-13.24-73.8l.94-.14c-44.53 8.9-31.76 78.75 13.58 70.62 18.49-3.32 27.42-17.05 28.39-31.48z" fill="#dbdbdb"/><path d="M753.34 244.12a1.52 1.52 0 0 1 1.29 1.67l-.31 2.45a20.43 20.43 0 0 1 10.6 5.67 1.74 1.74 0 0 1 .69 1.54 1.61 1.61 0 0 1-1.8 1.38 1.57 1.57 0 0 1-1.07-.58 18.06 18.06 0 0 0-8.89-5.15l-2 17.46c9.25 3.12 12.86 7.16 12.1 13.27-.77 6.62-6.88 10.65-14.72 10l-.56 4.88A1.54 1.54 0 0 1 747 298a1.51 1.51 0 0 1-1.28-1.68l.58-4.92a23.71 23.71 0 0 1-13.35-7.72 1.6 1.6 0 0 1 1.21-2.78 1.52 1.52 0 0 1 1.08.58 20.38 20.38 0 0 0 11.51 7.11l2.09-17.81c-9.12-3.16-12.59-7.05-11.86-13.29s6.81-10.47 14.45-9.76l.27-2.38a1.53 1.53 0 0 1 1.64-1.23zm-4.17 23.52 2-17.09c-6.08-.59-10.5 2.57-11 7.05-.52 4.29 1.16 7.1 9 10.04zm2.3 4.13-2 17.24c6.27.6 10.74-2.58 11.31-7.28.47-4.31-1.41-7.2-9.31-9.96z" fill="#dbdbdb"/><path d="M239.27 351.77c-37.48 11.58-75-38.94-112.43-27.35a304.32 304.32 0 0 1 19.72-33c30.51 5.15 61 37.07 91.52 28.68z" fill="#ebebeb"/><path d="M201.88 331.69c-1.19 5.56-9 6.84-17.47 2.35s-13.41-11.69-11.18-16.56 10.1-5.64 17.46-1.89 12.38 10.61 11.19 16.1zM164 312.53c-.61 1.11-2.84 1.29-5 .5s-3.32-2.25-2.65-3.41 2.91-1.5 5-.67 3.3 2.44 2.65 3.58zM149.33 292a315.84 315.84 0 0 0-19.1 31.53c-1.13.25-2.26.53-3.41.89a304.48 304.48 0 0 1 19.74-33c.91.19 1.84.37 2.77.58z" fill="#dbdbdb"/><path d="m239.2 349.78.07 2c-37.48 11.58-75-38.94-112.45-27.35l1.29-2.38c37-10.12 74.04 39.1 111.09 27.73zM238.08 320.12l.07 2c-30.94 8.59-61.88-24.34-92.84-28.84l1.29-1.82c30.47 5.16 60.97 37.05 91.48 28.66z" fill="#dbdbdb"/><path d="M138.84 320.66a41.29 41.29 0 0 0-7.44.62c.88-1.63 1.77-3.24 2.65-4.81 4.04-.4 6.19 1.81 4.79 4.19zM145.47 297.72c.85-1.34 1.74-2.67 2.66-4 2.07.41 4.13.94 6.2 1.57-1.33 2.05-5.33 2.93-8.86 2.43z" fill="#dbdbdb"/><path d="M190.09 317.93c.34.19.59.51.52.71s-.14.44-.22.65a18 18 0 0 1 4.57 3.56c.22.24.34.41.29.57s-.46.25-.84.06a1.22 1.22 0 0 1-.48-.36 16 16 0 0 0-3.86-3.13l-1.49 4.48c4.19 2.74 5.78 4.54 5.33 6.16s-3.49 1.69-7.25-.19c-.14.41-.28.84-.41 1.29-.08.2-.46.2-.86 0s-.67-.56-.59-.76l.44-1.29a22 22 0 0 1-6.13-5c-.17-.2-.26-.36-.19-.5s.5-.2.89 0a1.14 1.14 0 0 1 .48.39 18.66 18.66 0 0 0 5.24 4.41l1.57-4.52c-4.12-2.75-5.56-4.52-4.94-6.07s3.53-1.49 6.9.18c.07-.2.14-.41.22-.6s.45-.15.81-.04zm-2.69 5.74 1.5-4.33c-2.7-1.29-4.82-1.37-5.25-.25s.22 2.19 3.75 4.58zm.94 1.62-1.47 4.4c3 1.51 5.15 1.52 5.56.27s-.49-2.29-4.09-4.67zM179.64 365.91c-29.77-13.39-59.56 24.19-89.34 10.8 2.31-7 4.63-14.43 6.94-22 24.24 4.92 48.47-18.66 72.71-15.8 3.23 8.5 6.46 17.43 9.69 27z" fill="#ebebeb"/><path d="M145.67 355.27c.68 4.3-4.19 9.73-10.92 12.51s-12 1-11.84-3.68 5.06-10 10.91-12.44 11.18-.74 11.85 3.61zM115.41 365.78c-.1 1.09-1.57 2.29-3.27 2.58s-3-.4-2.79-1.47 1.62-2.1 3.27-2.42 2.91.25 2.79 1.31zM159.18 351.09c.28 1-.87 2-2.57 2.37s-3.27-.09-3.5-1.07.92-2.16 2.57-2.57 3.22.27 3.5 1.27zM179.64 365.91q-1.35-.62-2.7-1.08c-3.07-9.2-6.13-17.87-9.19-26.15a20.38 20.38 0 0 1 2.2.18c3.23 8.55 6.46 17.48 9.69 27.05z" fill="#dbdbdb"/><path d="M179 364.14c.21.59.4 1.19.61 1.8-29.77-13.39-59.56 24.19-89.34 10.79.15-.43.29-.88.43-1.28 29.47 12.67 58.9-23.9 88.3-11.31zM170 338.86q.31.81.6 1.62c-24.57-3.36-49.16 21-73.74 15.62.15-.48.29-1 .43-1.44 24.19 4.92 48.42-18.66 72.71-15.8z" fill="#dbdbdb"/><path d="m175.08 359.33 1.29 3.77a34.32 34.32 0 0 0-5.92-1.36c-.63-1.91 1.44-3.3 4.63-2.41zM163.38 340.22a40.88 40.88 0 0 1 5 0c.42 1.16.85 2.32 1.29 3.5-2.88-.3-5.67-1.66-6.29-3.5z" fill="#dbdbdb"/><path d="M134.05 353.59c.29-.12.54-.07.54.11v.56a9.53 9.53 0 0 1 4-.62c.21 0 .34 0 .35.19s-.23.45-.54.57a.72.72 0 0 1-.41 0 8.32 8.32 0 0 0-3.39.45c.08 1.28.17 2.57.25 3.86 3.5-1 5-.77 5.14.56s-1.84 3.31-4.81 4.58l.08 1.09c0 .18-.24.43-.57.56s-.58.08-.59-.1v-1.11a11.17 11.17 0 0 1-5.36.77c-.17 0-.26-.07-.26-.19a1 1 0 0 1 .58-.59.87.87 0 0 1 .42-.07 9.14 9.14 0 0 0 4.63-.56c-.07-1.29-.15-2.64-.21-4-3.45.92-4.87.69-4.88-.72s1.89-3.27 4.55-4.4V354c-.02 0 .2-.3.48-.41zm-.18 5.48c-.07-1.29-.14-2.57-.2-3.86-2.14.9-3.53 2.28-3.5 3.29s.76 1.31 3.7.57zm1.06.44.23 3.86c2.37-1 3.86-2.41 3.73-3.45s-.95-1.22-3.91-.41zM144.51 497.21c-34.24-14.16-68.51 16.72-102.72 2.65 3.53-7.72 7.07-15.93 10.61-24.53C80.26 480 108.12 461 136 466.94q4.2 14.72 8.51 30.27z" fill="#ebebeb"/><path d="M106.75 482c.31 5.08-5.71 10.49-13.45 12.44s-13.42-1.12-12.71-6.44 6.7-10.79 13.43-12.48 12.39 1.29 12.73 6.48zM72 488.87c-.23 1.22-2 2.43-4 2.57s-3.29-.74-3-1.94 2.07-2.25 4-2.45 3.24.61 3 1.82zM122.32 479.37c.2 1.19-1.21 2.18-3.17 2.32s-3.67-.59-3.86-1.76 1.29-2.32 3.17-2.49 3.65.75 3.86 1.93zM54.92 475.77a988.56 988.56 0 0 1-10 25.31c-1-.35-2.07-.74-3.11-1.16 3.53-7.72 7.07-15.93 10.6-24.52a21.42 21.42 0 0 1 2.51.37zM144.51 497.21c-1-.44-2.08-.83-3.13-1.18q-3.94-15.12-7.93-29.59c.84.14 1.69.3 2.57.48q4.18 14.73 8.49 30.29z" fill="#dbdbdb"/><path d="M144 495.25c.18.64.36 1.29.53 2-34.27-14.2-68.53 16.68-102.74 2.61.23-.49.45-1 .67-1.47 33.83 13.41 67.67-16.65 101.54-3.14zM136 466.94l.54 1.86c-28.33-6.32-56.54 13.3-84.81 8.2.22-.54.44-1.08.67-1.62C80.26 480 108.12 461 136 466.94z" fill="#dbdbdb"/><path d="M52.32 501.14a50.87 50.87 0 0 1-6.79-1.64l1.4-3.41c3.66 1.04 6.07 3.03 5.39 5.05zM139.79 489.92c.37 1.39.73 2.8 1.1 4.2a51.18 51.18 0 0 0-6.8-1.69c-.5-2.16 2.04-3.56 5.7-2.51zM128.26 467.64a51.9 51.9 0 0 1 5.69.66c.37 1.28.74 2.68 1.1 4-3.24-.61-6.28-2.51-6.79-4.66zM52.9 481l1.39-3.64a53.89 53.89 0 0 0 5.68.45c-.67 2.09-3.84 3.7-7.07 3.19z" fill="#dbdbdb"/><path d="M94.05 477.79c.32-.08.59 0 .58.24s0 .43 0 .65a10 10 0 0 1 4.48 0c.23 0 .34.13.34.28s-.29.48-.65.57a.94.94 0 0 1-.47 0 8.47 8.47 0 0 0-3.78-.13c0 1.52-.09 3-.14 4.55 4-.46 5.66.08 5.67 1.65s-2.4 3.49-5.81 4.39v1.28c0 .21-.32.47-.68.56s-.66 0-.65-.23v-1.29a12.35 12.35 0 0 1-6-.1c-.18-.07-.28-.13-.27-.29a1 1 0 0 1 .71-.56.79.79 0 0 1 .48 0 10.07 10.07 0 0 0 5.14.2c0-1.54.12-3.1.18-4.64-3.86.42-5.45-.09-5.31-1.74s2.44-3.46 5.51-4.26v-.63c-.01-.22.35-.42.67-.5zm-.8 6.32c0-1.48.12-3 .18-4.44-2.46.63-4.14 2-4.22 3.15s.71 1.61 4 1.29zm1.12.72-.15 4.48c2.72-.7 4.49-2.05 4.49-3.29s-1-1.56-4.34-1.24z" fill="#ebebeb"/><g data-name="freepik--Plant--inject-2"><path d="M256.31 459.42c-14.68 19.88-29.94 43-33.73 67.89 0 .38.57.51.66.13a148.88 148.88 0 0 1 6.43-20c9.65-2.66 19.13-4.83 24.2-14.42 5.15-9.84 4.52-22.68 3.53-33.45-.01-.51-.8-.57-1.09-.15z" fill="#0071f2"/><path d="M229.87 507.28c6.6-14.8 15.06-29.59 25.83-41.83 0-.09.18 0 .12.12-7 8.67-12.41 18.11-17.63 27.71 4.86-4.94 10.19-9.35 14.8-14.59.09-.1.23 0 .14.16-4.57 5.48-9.57 11.43-15.52 15.5l-4.85 8.86a12.94 12.94 0 0 1 1.29-.63c.07 0 .14.08 0 .11-.45.23-.9.47-1.38.68-.77 1.39-1.53 2.79-2.33 4.19-.11.31-.6.04-.47-.28zM234.78 502.12a85.41 85.41 0 0 0 11.27-7.58c.09-.07.23 0 .14.14a59.23 59.23 0 0 1-11.25 7.72.16.16 0 0 1-.16-.28z" fill="#2f2e41"/><path d="M220.89 523.61c0 .29.54.29.54 0 .07-8.21 0-16.47.12-24.72 2.11-4.24 6.63-6.59 9.77-10a43.48 43.48 0 0 0 5.85-8.15 58.6 58.6 0 0 0 6.8-22.65c.86-8.78-2.47-37.77-6.18-36.77-1.92.53-8.13 14.89-9.78 19.64a136.3 136.3 0 0 0-5.84 24c-3 19.35-2.75 39.19-1.28 58.65z" fill="#0071f2"/><path d="M220.83 488.17c.48-10.35 2.82-20.9 5-30.94 2.36-10.85 5.15-21.07 10.71-30.75a.16.16 0 0 1 .21-.06.17.17 0 0 1 .06.22 115.16 115.16 0 0 0-8.6 23.6 17.91 17.91 0 0 1 1.29-1.68c.15-.22.5 0 .36.21a16.25 16.25 0 0 1-1.75 2.47h-.08c-1.92 7.72-3.29 15.69-4.48 23.62l.26-.31a.07.07 0 0 1 .11 0 .07.07 0 0 1 0 .11c-.15.27-.32.53-.48.78-.59 4-1.14 8-1.69 12 7.15-6.11 13.26-13.32 16.72-22.21m.07 0c-3.37 9.21-8.7 17.4-16.9 23-.15 1.07-.29 2.14-.45 3.21 0 .23-.38.16-.38 0 0-.94 0-1.89.09-2.85a.21.21 0 0 1-.2-.23.22.22 0 0 1 .09-.17z" fill="#2f2e41"/><path d="M224.2 473.12C229.67 465 234.78 457 238.78 448c0-.1.22 0 .18.08-3.38 9-8.1 18-14.49 25.24-.12.16-.38-.03-.27-.2zM231.51 446c2.28-4 4.66-7.91 6.8-12 .06-.12.21 0 .16.09a62 62 0 0 1-6.6 12.1c-.2.22-.54.04-.36-.19z" fill="#2f2e41"/><path d="M230.59 447.81s-.06-.06 0-.06z" fill="#263238"/><path d="M215.33 499.86a83.05 83.05 0 0 1-1.92 16.14c.09.59.17 1.17.26 1.78a77.45 77.45 0 0 0 2.89-18 .54.54 0 0 0 0-.55 120 120 0 0 0-1.81-24.45c-2.58-15.09-8.11-29.59-18.63-40.89a.76.76 0 0 0-1.06.08.86.86 0 0 0-.1.16c-4.25 10.8-2.77 23.68.85 34.46a63 63 0 0 0 8.35 16.41c3.64 5 8.23 9.31 11.17 14.86z" fill="#0071f2"/><path d="M197.39 438.94c10 16.18 16.92 35.38 17.77 54.5 0 .33-.55.42-.6.07-.25-1.71-.51-3.42-.78-5.14-4.11-3.95-8.36-8.12-11.31-13.06 0-.09.07-.19.15-.12a136.73 136.73 0 0 0 11 12 159.4 159.4 0 0 0-2.57-12.48l-.79-.93c-.18-.2.12-.5.3-.29l.23.25a146.61 146.61 0 0 0-5.22-16.48c-2.57-3-5.38-5.65-7.23-9.29a.09.09 0 0 1 .05-.1.11.11 0 0 1 .08 0c1.49 2.09 2.93 4.19 4.62 6.13.66.77 1.41 1.49 2.11 2.24a130.27 130.27 0 0 0-8.17-17 .24.24 0 1 1 .38-.28z" fill="#2f2e41"/><path d="M199.41 458.9c3.22 4.34 6.9 8.48 9.9 13 .09.13-.11.27-.21.17a66.32 66.32 0 0 1-9.91-13c-.09-.18.16-.3.22-.17zM209.76 472.86l.14.14c.09.1 0 .25-.16.16l-.14-.14a.11.11 0 0 1 .16-.16z" fill="#2f2e41"/><path d="M181.76 470.1a49.81 49.81 0 0 0 10.52 24.7 26.28 26.28 0 0 0 8.55 6.65c3.66 1.79 7.52 3.89 11.38 5.39a73.67 73.67 0 0 1 4 14.34c.12-.43.25-.87.36-1.29-2.44-21.09-16.09-39.11-33.54-50.68a.85.85 0 0 0-1.18.21.86.86 0 0 0-.09.68z" fill="#0071f2"/><path d="M187.77 476.29a.15.15 0 0 1 .18-.24 71.21 71.21 0 0 1 22.23 27.41c.13.28-.26.54-.42.26-.81-1.43-1.65-2.81-2.49-4.17-4-.75-7.72-3.55-10.71-6.22-.08-.06 0-.18.12-.11a24.15 24.15 0 0 0 5 3.54c1.64.82 3.38 1.28 5.07 2q-2.22-3.51-4.62-6.76a46.58 46.58 0 0 1-12-6.73c-.12-.09 0-.27.11-.2a117.61 117.61 0 0 0 11.19 5.93 99.36 99.36 0 0 0-7.86-9.16c-1.35-.71-2.73-1.43-4-2.2a.12.12 0 0 1 0-.17.12.12 0 0 1 .11 0 14.9 14.9 0 0 1 3.1 1.53c-1.63-1.61-3.25-3.18-5.01-4.71zM188.17 483.57a3.85 3.85 0 0 1 .67.47c.06 0 0 .15-.08.11a3.81 3.81 0 0 1-.71-.4.11.11 0 1 1 .12-.18zM243.86 566.84h-47.83l3.86-43.55.85-9.62h38.42l.83 9.62 3.87 43.55z" fill="#2f2e41"/><path opacity=".2" d="M239.99 523.29h-40.1l.85-9.62h38.42l.83 9.62z"/><path fill="#2f2e41" d="M198.45 506.96h42.99v9.51h-42.99z"/></g></svg>