<svg width="161" height="46" viewBox="0 0 161 46" fill="none" xmlns="http://www.w3.org/2000/svg">
<path d="M14.364 15.076L13.356 20.116H25.62L24.108 27.592H11.886L9.996 37H0.084L5.964 7.6H29.862L28.35 15.076H14.364ZM30.9871 14.026H40.4371L35.8591 37H26.4091L30.9871 14.026ZM36.7411 12.178C35.1171 12.178 33.8151 11.758 32.8351 10.918C31.8551 10.05 31.3651 8.972 31.3651 7.684C31.3651 6.2 31.9251 4.968 33.0451 3.988C34.1651 3.008 35.6211 2.518 37.4131 2.518C39.0371 2.518 40.3391 2.924 41.3191 3.736C42.2991 4.52 42.7891 5.556 42.7891 6.844C42.7891 8.44 42.2291 9.728 41.1091 10.708C40.0171 11.688 38.5611 12.178 36.7411 12.178ZM60.0173 13.606C62.5093 13.606 64.4973 14.278 65.9813 15.622C67.4933 16.966 68.2493 18.898 68.2493 21.418C68.2493 22.37 68.1513 23.336 67.9553 24.316L65.4353 37H55.9433L58.2533 25.45C58.3653 24.778 58.4213 24.316 58.4213 24.064C58.4213 22.412 57.6233 21.586 56.0273 21.586C53.7873 21.586 52.3733 23.042 51.7853 25.954L49.5593 37H40.0673L44.6453 14.026H53.5913L53.1293 16.336C54.1093 15.412 55.1873 14.726 56.3633 14.278C57.5673 13.83 58.7853 13.606 60.0173 13.606ZM79.1336 37.42C77.1456 37.42 75.2276 37.224 73.3796 36.832C71.5316 36.44 70.0896 35.936 69.0536 35.32L72.3296 28.852C73.4216 29.524 74.6816 30.042 76.1096 30.406C77.5656 30.77 78.9656 30.952 80.3096 30.952C82.1856 30.952 83.1236 30.588 83.1236 29.86C83.1236 29.552 82.8716 29.328 82.3676 29.188C81.8916 29.02 81.1216 28.866 80.0576 28.726C78.4056 28.474 77.0056 28.18 75.8576 27.844C74.7096 27.48 73.7016 26.864 72.8336 25.996C71.9656 25.1 71.5316 23.868 71.5316 22.3C71.5316 19.472 72.7356 17.316 75.1436 15.832C77.5516 14.348 80.6596 13.606 84.4676 13.606C86.1476 13.606 87.7576 13.76 89.2976 14.068C90.8656 14.348 92.2516 14.768 93.4556 15.328L90.1796 21.796C88.1916 20.648 85.9096 20.074 83.3336 20.074C82.3256 20.074 81.5836 20.186 81.1076 20.41C80.6596 20.634 80.4356 20.9 80.4356 21.208C80.4356 21.516 80.6736 21.754 81.1496 21.922C81.6256 22.062 82.4376 22.23 83.5856 22.426C85.2096 22.678 86.5816 22.986 87.7016 23.35C88.8496 23.686 89.8436 24.302 90.6836 25.198C91.5516 26.066 91.9856 27.27 91.9856 28.81C91.9856 30.658 91.4116 32.24 90.2636 33.556C89.1436 34.844 87.6036 35.81 85.6436 36.454C83.7116 37.098 81.5416 37.42 79.1336 37.42Z" fill="#2963FF"/>
<path d="M109.846 16.48C111.518 16.48 113.025 16.8347 114.368 17.544C115.736 18.2533 116.813 19.2793 117.598 20.622C118.383 21.9647 118.776 23.548 118.776 25.372C118.776 27.6267 118.269 29.666 117.256 31.49C116.268 33.2887 114.9 34.7073 113.152 35.746C111.429 36.7593 109.504 37.266 107.376 37.266C105.704 37.266 104.26 36.9747 103.044 36.392C101.828 35.784 100.903 34.91 100.27 33.77L99.624 37H95.102L100.726 8.804H105.476L103.538 18.608C105.261 17.1893 107.363 16.48 109.846 16.48ZM106.996 33.2C108.339 33.2 109.529 32.8833 110.568 32.25C111.632 31.5913 112.468 30.692 113.076 29.552C113.684 28.3867 113.988 27.0693 113.988 25.6C113.988 24.004 113.519 22.7627 112.582 21.876C111.645 20.964 110.327 20.508 108.63 20.508C107.287 20.508 106.084 20.8373 105.02 21.496C103.981 22.1293 103.158 23.0287 102.55 24.194C101.942 25.334 101.638 26.6387 101.638 28.108C101.638 29.704 102.107 30.958 103.044 31.87C103.981 32.7567 105.299 33.2 106.996 33.2ZM133.009 16.48C135.846 16.48 138.113 17.2653 139.811 18.836C141.533 20.4067 142.395 22.674 142.395 25.638C142.395 26.094 142.382 26.436 142.357 26.664L126.131 29.628C126.663 32.0347 128.563 33.238 131.831 33.238C132.996 33.238 134.085 33.0607 135.099 32.706C136.137 32.3513 136.999 31.832 137.683 31.148L139.659 34.454C138.62 35.3913 137.379 36.1007 135.935 36.582C134.491 37.038 132.971 37.266 131.375 37.266C129.348 37.266 127.575 36.8987 126.055 36.164C124.535 35.4293 123.369 34.3907 122.559 33.048C121.748 31.7053 121.343 30.1347 121.343 28.336C121.343 26.1067 121.837 24.0927 122.825 22.294C123.813 20.47 125.193 19.0513 126.967 18.038C128.74 16.9993 130.754 16.48 133.009 16.48ZM132.819 20.28C130.995 20.28 129.487 20.8373 128.297 21.952C127.106 23.0667 126.371 24.574 126.093 26.474L137.987 24.27C137.835 23.0033 137.29 22.028 136.353 21.344C135.441 20.6347 134.263 20.28 132.819 20.28ZM152.513 19.33C153.399 18.2913 154.476 17.5567 155.743 17.126C157.035 16.6953 158.567 16.48 160.341 16.48L159.467 21.002C159.036 20.926 158.643 20.888 158.289 20.888C154.413 20.888 152.069 22.9273 151.259 27.006L149.245 37H144.495L148.523 16.708H153.045L152.513 19.33Z" fill="#212730"/>
</svg>
